<svg width="40" height="40" viewBox="0 0 40 40" fill="none" xmlns="http://www.w3.org/2000/svg">
<g clip-path="url(#clip0_2014_108)">
<path fill-rule="evenodd" clip-rule="evenodd" d="M9.99983 0.141951C8.54521 0.612736 7.51684 1.6779 7.14738 3.09627C7.04637 3.48416 7.03105 5.47738 7.03105 18.2532V32.9635H6.08941C4.91502 32.9635 4.23986 33.1065 3.32009 33.5502C2.05164 34.1621 1.19843 35.0153 0.586473 36.2838C0.196079 37.0932 -0.000406882 37.8833 6.18719e-05 38.643C0.000374374 39.2572 0.157954 39.5905 0.565457 39.8389C0.814756 39.9909 0.973507 39.9942 8.20294 39.9942C15.4324 39.9942 15.5911 39.9909 15.8404 39.8389C16.2479 39.5905 16.4055 39.2572 16.4058 38.643C16.4063 37.8833 16.2098 37.0932 15.8194 36.2838C15.2074 35.0153 14.3542 34.1621 13.0858 33.5502C12.1658 33.1063 11.4909 32.9635 10.3155 32.9635H9.37279L9.39334 18.2892L9.41389 3.61503L9.65029 3.2326C9.99787 2.67049 10.4948 2.38705 11.1326 2.38705C11.7705 2.38705 12.2674 2.67049 12.615 3.23252L12.8514 3.61495L12.8905 14.3634C12.9259 24.0937 12.9417 25.142 13.0579 25.4299C13.6491 26.8953 14.6256 27.8036 15.9923 28.1596C16.2966 28.2388 16.8321 28.2759 17.6725 28.2759H18.9061V30.5806V32.8853L19.121 32.884C19.4475 32.8819 20.3551 32.6755 21.0539 32.4442C24.7765 31.2127 27.5368 27.9793 28.1633 24.1159C28.2591 23.5256 28.2807 22.4445 28.2809 18.2172C28.2811 15.3706 28.26 13.0414 28.2341 13.0414C28.1017 13.0414 26.8257 13.6943 26.1991 14.0826C23.1836 15.9515 20.9438 18.7155 19.7623 22.0259C19.4618 22.8681 19.1128 24.3107 19.0253 25.0728C18.9982 25.3091 18.9567 25.6029 18.9331 25.7254L18.8901 25.9485L17.7006 25.9207C16.5348 25.8936 16.5034 25.8884 16.1286 25.6567C15.8917 25.5101 15.6563 25.2748 15.5097 25.0378L15.2733 24.6554L15.2342 13.907C15.1989 4.17667 15.183 3.12838 15.0668 2.84049C14.4845 1.39696 13.5666 0.528282 12.1927 0.120388C11.6227 -0.0487535 10.5567 -0.0382847 9.99983 0.141951ZM31.1328 12.1381C31.0898 12.1547 30.958 12.1897 30.8398 12.2158L30.625 12.2631L30.6248 17.4375C30.6246 20.4713 30.5901 22.9835 30.5415 23.5103C30.264 26.5136 29.0683 29.1611 27.0351 31.2734C24.9924 33.3959 22.381 34.7489 19.5421 35.156L18.889 35.2496L18.919 36.3136C18.9474 37.3156 18.9636 37.4084 19.1983 37.9079C19.4962 38.5417 20.1499 39.2565 20.7109 39.5619C21.4896 39.9856 21.5777 39.9928 25.9948 39.9938L30.0757 39.9948L29.6926 39.4674C27.5915 36.5754 27.9235 32.7079 30.4832 30.2572C31.6734 29.1176 33.039 28.5119 34.8653 28.3133L35.3167 28.2641L35.295 21.4885L35.2735 14.7128L34.9737 14.1064C34.5925 13.3353 34.0188 12.7507 33.3052 12.4064C32.8291 12.1768 32.6917 12.1477 31.9922 12.1288C31.5625 12.1172 31.1758 12.1213 31.1328 12.1381ZM33.9725 30.805C33.2029 31.0328 32.5959 31.399 32.0001 31.9948C31.0852 32.9097 30.625 34.0183 30.625 35.3072C30.625 36.5993 31.0866 37.7083 32.0035 38.6193C32.9304 39.5403 34.0238 39.9948 35.3125 39.9948C36.6014 39.9948 37.71 39.5345 38.625 38.6197C39.5398 37.7047 40.0001 36.5961 40.0001 35.3072C40.0001 32.6842 37.9099 30.6084 35.2842 30.6239C34.7806 30.6268 34.3942 30.6802 33.9725 30.805ZM35.6196 34.2119C35.9814 34.3157 36.3138 34.6514 36.4105 35.0105C36.7028 36.0957 35.4091 36.8926 34.5623 36.149C33.806 35.4851 34.2513 34.2294 35.274 34.1421C35.3172 34.1384 35.4728 34.1698 35.6196 34.2119Z" fill="white"/>
</g>
<defs>
<clipPath id="clip0_2014_108">
<rect width="40" height="40" fill="white"/>
</clipPath>
</defs>
</svg>
