<svg width="40" height="40" viewBox="0 0 40 40" fill="none" xmlns="http://www.w3.org/2000/svg">
<g clip-path="url(#clip0_2014_102)">
<path fill-rule="evenodd" clip-rule="evenodd" d="M18.2432 0.151318C17.3441 0.393424 16.6108 1.01699 16.217 1.87414C15.9187 2.52353 15.9396 3.63093 16.2632 4.31214C16.5753 4.96949 17.0977 5.4903 17.7499 5.79454C18.1529 5.98246 18.4533 6.04311 19.1343 6.0738L20.004 6.11292L19.9766 6.72947L19.9491 7.34592L19.5748 7.42181C18.8172 7.5753 17.1632 8.17724 16.3213 8.60586C14.5203 9.52282 12.9011 10.7738 11.6873 12.1861L10.9812 13.0077L8.27467 13.035L5.56808 13.0624L5.29518 13.3681C4.91766 13.7907 4.91766 14.2993 5.29509 14.7221L5.56798 15.0277L7.62107 15.0561L9.67416 15.0844L9.24329 16.0615L8.81242 17.0384L6.22805 17.0392C3.77918 17.0398 3.63104 17.0497 3.40381 17.2285C3.27195 17.3322 3.11547 17.5641 3.05623 17.7438C2.96564 18.0182 2.97575 18.1264 3.11959 18.4208C3.42674 19.0493 3.6432 19.0984 6.10975 19.0985L8.27355 19.0987L8.20252 19.4964C8.16349 19.7152 8.10266 20.1364 8.06747 20.4323L8.00346 20.9704L4.47733 20.9706C0.498346 20.9707 0.452488 20.9779 0.124844 21.6484C-0.0189971 21.9428 -0.0291042 22.051 0.0614869 22.3254C0.120727 22.505 0.277202 22.737 0.409065 22.8406C0.640222 23.0225 0.781068 23.0293 4.31964 23.0293H7.99036L8.10837 23.893C8.17332 24.368 8.24697 24.8102 8.27205 24.8757C8.30827 24.9699 7.84324 24.9946 6.03563 24.9946C4.0386 24.9946 3.72472 25.0146 3.52229 25.1541C3.01843 25.5014 2.87121 25.942 3.09872 26.4215C3.38828 27.0317 3.49899 27.0535 6.30553 27.0535H8.82346L9.25218 28.0362L9.6808 29.0188H7.73028C6.41728 29.0188 5.69947 29.0554 5.53429 29.1306C5.05991 29.3467 4.86253 30.153 5.17483 30.5988C5.48198 31.0374 5.76442 31.0777 8.52867 31.0777C10.0514 31.0777 11.1053 31.1133 11.1053 31.1645C11.1053 31.3325 13.1243 33.3562 13.8208 33.8864C16.2324 35.7223 18.8532 36.7273 21.8719 36.974C23.2669 37.088 25.4397 36.9279 26.3283 36.6459C26.4077 36.6207 26.3909 36.4252 26.2667 35.9268C26.0404 35.0178 25.9622 33.9833 26.0609 33.1983L26.1411 32.5579L25.8527 32.6205C24.1907 32.9804 22.4681 33.0498 21.1036 32.8119C17.3201 32.1522 14.091 29.4661 12.7226 25.8402C12.3584 24.8751 12.1363 23.7309 12.0771 22.5146C11.8523 17.8971 14.5739 13.6494 18.8942 11.8751C21.3127 10.8819 24.4136 10.8527 26.8936 11.7997C31.3111 13.4866 34.1935 17.9447 33.9066 22.6465C33.8458 23.644 33.6113 24.8793 33.3386 25.6381C33.2577 25.8633 33.1915 26.0528 33.1916 26.0593C33.1917 26.0656 33.6233 26.0777 34.1509 26.086C34.8604 26.0972 35.3415 26.1649 35.9991 26.3462C36.4881 26.4809 36.9783 26.615 37.0884 26.6441C37.2743 26.6932 37.3059 26.6241 37.5289 25.6821C37.9043 24.0949 37.9944 23.1546 37.9356 21.4384C37.8557 19.1052 37.4282 17.4298 36.3716 15.3085C34.4965 11.5439 31.014 8.67165 27.0149 7.59149C26.5774 7.47329 26.1668 7.3622 26.1024 7.3447C26.0243 7.32336 25.9854 7.11336 25.9854 6.71272V6.11264L26.8511 6.07362C28.2594 6.01017 29.1806 5.44416 29.7182 4.31214C30.0417 3.63093 30.0627 2.52353 29.7643 1.87414C29.362 0.99827 28.6349 0.390617 27.697 0.146358C26.9374 -0.0514828 18.9807 -0.0473649 18.2432 0.151318ZM21.4317 13.1478C19.5132 13.514 17.8399 14.4169 16.5282 15.7934C15.3976 16.9799 14.6816 18.2273 14.2654 19.7353C13.9971 20.7074 13.9672 23.2335 14.2135 24.123C14.6955 25.8635 15.4399 27.1768 16.6239 28.3753C19.1424 30.9247 22.8828 31.7106 26.2889 30.4062C26.9589 30.1497 27.04 30.0886 27.365 29.5972C28.0357 28.5825 29.1888 27.5595 30.4522 26.8585C30.7803 26.6764 31.2998 25.6502 31.6619 24.4687C31.8937 23.7124 31.9171 23.4987 31.9223 22.0935C31.9274 20.7604 31.8986 20.4414 31.7125 19.7601C30.84 16.5669 28.3707 14.1273 25.1568 13.2829C24.2257 13.0383 22.3598 12.9706 21.4317 13.1478ZM23.3032 14.1329C23.4302 14.1812 23.6225 14.3155 23.7304 14.4313C23.9222 14.6372 23.9265 14.7183 23.9265 18.1067V21.5716L25.4239 23.0789C26.9122 24.5771 26.9213 24.5888 26.9213 25.0068C26.9213 25.4696 26.7112 25.7791 26.2877 25.9401C25.7811 26.1327 25.533 25.9679 23.8949 24.3508C23.0282 23.4953 22.2596 22.6816 22.187 22.5427C22.0793 22.3368 22.0554 21.5822 22.0578 18.4717C22.061 14.3436 22.0462 14.4656 22.5784 14.188C22.8968 14.022 22.9923 14.0148 23.3032 14.1329ZM0.409065 17.2285C0.277202 17.3322 0.120727 17.5641 0.0614869 17.7438C-0.174537 18.4589 0.608403 19.2418 1.32349 19.0058C1.93676 18.8034 2.1959 18.1671 1.91561 17.5519C1.68876 17.054 0.857715 16.8756 0.409065 17.2285ZM0.530071 25.1479C0.0186246 25.5101 -0.123813 25.9415 0.107438 26.4287C0.574431 27.4129 2.02744 27.1024 2.02744 26.0184C2.02744 25.267 1.11283 24.7353 0.530071 25.1479ZM32.5582 28.1703C30.3329 28.7169 28.6015 30.4897 28.1009 32.7339C27.8016 34.076 27.9707 35.3714 28.6175 36.6928C28.9269 37.3249 29.1628 37.6422 29.7656 38.2374C30.9962 39.4524 32.2459 39.9842 33.8934 39.9941C35.9038 40.0061 37.5749 39.181 38.7845 37.5791C39.6164 36.4775 40.1156 34.7838 39.977 33.5331C39.8115 32.0409 39.2552 30.8743 38.1987 29.8043C37.6035 29.2014 37.2863 28.9656 36.6542 28.6562C35.3058 27.9961 33.931 27.833 32.5582 28.1703ZM36.5263 31.2435C36.7705 31.4414 36.935 31.7491 36.935 32.0081C36.935 32.3122 34.7247 36.6572 34.4844 36.8255C34.2228 37.0087 33.8244 37.0154 33.491 36.8423C33.352 36.7701 32.7434 36.2052 32.1387 35.5868C31.0552 34.479 31.0391 34.4561 31.0391 34.0293C31.0391 33.545 31.2974 33.1927 31.7329 33.0834C32.148 32.9793 32.4514 33.1272 33.0935 33.7471L33.7145 34.3467L34.4123 32.9364C34.8208 32.1107 35.2197 31.4331 35.3746 31.3019C35.6923 31.0326 36.2321 31.0053 36.5263 31.2435Z" fill="white"/>
</g>
<defs>
<clipPath id="clip0_2014_102">
<rect width="40" height="40" fill="white"/>
</clipPath>
</defs>
</svg>
