<svg width="40" height="40" viewBox="0 0 40 40" fill="none" xmlns="http://www.w3.org/2000/svg">
<g clip-path="url(#clip0_2014_90)">
<path fill-rule="evenodd" clip-rule="evenodd" d="M9.32106 0.0198179C8.30502 0.262123 7.75076 0.562035 7.21253 1.16068C6.60404 1.8375 6.31178 2.59372 6.31178 3.49119C6.31178 4.38866 6.60404 5.14489 7.21253 5.8217C8.57226 7.334 10.9154 7.36386 12.3125 5.88665C13.3565 4.78276 13.5748 3.21668 12.8757 1.84625C12.5045 1.11871 11.6541 0.413212 10.8452 0.161762C10.4631 0.0429542 9.57196 -0.0400549 9.32106 0.0198179ZM22.8433 3.72138C22.6359 3.80627 22.4434 4.02731 22.34 4.29924C22.2757 4.46831 22.3669 6.12067 22.7254 11.2789C22.9836 14.9958 23.195 18.1067 23.195 18.1918C23.195 18.3396 23.1466 18.3456 22.1242 18.3248L21.0532 18.3031L19.7546 12.988C19.0403 10.0647 18.4145 7.59647 18.3638 7.50314C18.1937 7.18932 17.8814 7.00853 17.5098 7.00853C17.2171 7.00853 17.1179 7.05144 16.8951 7.27428C16.6737 7.49564 16.6293 7.59725 16.6293 7.88255C16.6293 8.07092 16.8747 9.22429 17.1746 10.4456C17.4744 11.6669 17.7076 12.6782 17.6929 12.6931C17.6622 12.7236 11.2873 13.0915 11.2527 13.0647C11.2403 13.0551 11.3572 12.5591 11.5124 11.9624C11.7297 11.1276 11.7837 10.7921 11.7472 10.5066C11.641 9.67693 11.1323 8.9508 10.4279 8.62369C10.2061 8.52059 9.07485 8.17855 7.91412 7.86363C5.53742 7.21879 5.06141 7.1629 4.42212 7.45367C3.91288 7.68526 3.38935 8.19285 3.19597 8.64245C2.88864 9.35686 0.0467863 19.9832 0.00621973 20.5698C-0.0283283 21.0686 0.0552279 21.4815 0.951523 25.2421C1.49225 27.5109 1.93552 29.4454 1.93653 29.541C1.93763 29.6366 1.70298 31.5475 1.41511 33.7873C0.934405 37.5281 0.900092 37.8897 0.994512 38.2268C1.14435 38.7619 1.4663 39.1591 1.94286 39.3965C2.66665 39.7573 3.47244 39.6467 4.03239 39.11C4.55124 38.6126 4.55953 38.575 5.142 34.0685C5.44034 31.7599 5.68468 29.6777 5.68492 29.4413C5.68523 29.1644 5.3936 27.7896 4.86561 25.5783C4.41469 23.6902 4.05569 22.1354 4.0678 22.1233C4.07992 22.1113 5.01998 23.738 6.15686 25.7383C7.84151 28.7027 8.21959 29.4212 8.20083 29.6233C8.18816 29.7597 7.984 31.6475 7.74709 33.8184C7.37715 37.2093 7.32868 37.8219 7.40341 38.1648C7.70488 39.5481 9.42611 40.0835 10.4418 39.11C10.9875 38.5868 10.9773 38.6382 11.5249 33.6271C11.8331 30.8053 12.0102 28.8846 11.9804 28.6849C11.9468 28.4597 11.4217 27.4659 10.2871 25.4802L8.6426 22.602L8.95807 21.4316C9.29503 20.1817 9.29245 20.1434 8.86912 20.1411C8.57226 20.1394 7.76991 19.8615 7.41466 19.6372C6.96804 19.3554 6.41551 18.6948 6.28044 18.2812C6.14295 17.8604 4.96785 12.2346 5.00881 12.1935C5.02366 12.1788 5.52156 13.2133 6.11536 14.4923C7.77711 18.072 7.77281 18.0639 8.13877 18.3265C8.31823 18.4552 8.65198 18.5959 8.89116 18.6437C9.81591 18.8286 15.0126 19.5928 15.3445 19.5928C16.9108 19.5928 17.4959 17.5081 16.1603 16.686C15.8438 16.4913 15.5274 16.4268 13.0054 16.0422C11.4637 15.8072 10.1919 15.6042 10.1791 15.5911C10.1278 15.5388 7.79586 10.5011 7.81517 10.4844C7.82658 10.4746 8.53708 11.3184 9.39398 12.3595L10.9519 14.2525L12.6768 14.5086C16.3205 15.0495 16.6551 15.1344 17.2685 15.673C17.5846 15.9505 17.7758 15.9759 18.164 15.7916C18.3118 15.7215 18.4414 15.6776 18.452 15.6939C18.4626 15.7103 18.6146 16.3111 18.7897 17.0291L19.1082 18.3345L18.7524 18.3579L18.3965 18.3812L18.2641 18.8286C18.123 19.3052 17.8115 19.8915 17.6109 20.058C17.5054 20.1455 17.4891 20.4829 17.4891 22.5725V24.986H15.6159H13.7427L13.4689 25.2264C12.9717 25.663 13.0333 26.3606 13.5995 26.7058C13.8347 26.8493 13.9956 26.8614 15.6718 26.8616L17.4891 26.8619V31.6767C17.4891 35.9108 17.504 36.523 17.6131 36.7527C17.816 37.1805 18.0562 37.2862 18.9054 37.3217L19.6573 37.3531L19.7106 36.9732C19.8427 36.0336 20.2385 35.2742 20.9115 34.6692C23.0049 32.7869 26.3685 33.9911 26.8321 36.7886L26.9163 37.2967L28.8216 37.3176C30.889 37.3404 30.8515 37.348 30.8538 36.9015C30.8558 36.4908 31.1691 35.7096 31.5261 35.2245C32.8373 33.4436 35.4095 33.2603 36.959 34.8375C37.1995 35.0822 37.4879 35.4665 37.5999 35.6913C37.777 36.0466 37.851 36.3085 38.0151 37.1599C38.0459 37.3199 38.0929 37.3357 38.536 37.3353C39.2237 37.3348 39.5707 37.2195 39.8031 36.9148C39.9965 36.6612 40 36.632 40 35.2622C40 33.6422 39.9165 33.3472 39.3518 32.973C39.0582 32.7785 38.9644 32.7614 38.0641 32.7371L37.093 32.7111L37.2517 32.5417C37.3819 32.4027 37.5374 31.6637 38.119 28.4203C38.5087 26.2467 38.8276 24.3183 38.8276 24.1349C38.8276 23.8707 38.7802 23.7542 38.5991 23.5731L38.3706 23.3446H34.2551H30.1395L29.911 23.5731C29.7432 23.7409 29.6825 23.8762 29.6825 24.0826C29.6825 24.2372 30.0009 26.1481 30.39 28.329C30.9302 31.357 31.134 32.3451 31.2521 32.5092L31.4068 32.7242H30.232H29.0572V26.0578V19.3914L28.8813 19.0445C28.5753 18.4407 28.396 18.3853 26.6537 18.3558C25.8262 18.3417 25.1456 18.3241 25.1415 18.3167C25.1373 18.3092 24.9145 15.1727 24.6463 11.3466C24.2475 5.65701 24.1348 4.34403 24.0273 4.13737C23.8141 3.72764 23.2835 3.54122 22.8433 3.72138ZM22.8748 35.0712C21.049 35.374 20.3429 37.6989 21.6837 38.9929C22.3447 39.6307 23.4147 39.8313 24.2228 39.4687C24.6852 39.2612 25.1957 38.7521 25.4093 38.2854C25.648 37.7642 25.644 36.8815 25.4007 36.3879C24.9302 35.4327 23.908 34.9 22.8748 35.0712ZM33.9033 35.0972C32.474 35.4058 31.6999 36.9861 32.3279 38.3135C32.7312 39.166 33.4731 39.6374 34.4114 39.6374C35.3669 39.6374 36.1253 39.1431 36.5202 38.2632C36.7094 37.8415 36.7317 37.7115 36.6999 37.2154C36.6068 35.7648 35.3212 34.791 33.9033 35.0972ZM23.6105 36.6414C23.892 36.7854 24.0512 37.0444 24.0531 37.3613C24.058 38.2071 22.8348 38.4128 22.5702 37.6108C22.4563 37.2657 22.5368 36.9865 22.8187 36.7493C23.0685 36.5391 23.3384 36.5023 23.6105 36.6414ZM34.8994 36.7263C35.0851 36.8802 35.2229 37.2708 35.1766 37.5125C35.1187 37.8158 34.7347 38.1174 34.4066 38.1174C34.0224 38.1174 33.6569 37.7734 33.6464 37.4017C33.6373 37.0805 33.8323 36.736 34.0837 36.6294C34.2969 36.539 34.7366 36.5912 34.8994 36.7263Z" fill="white"/>
</g>
<defs>
<clipPath id="clip0_2014_90">
<rect width="40" height="40" fill="white"/>
</clipPath>
</defs>
</svg>
