<svg width="40" height="40" viewBox="0 0 40 40" fill="none" xmlns="http://www.w3.org/2000/svg">
<g clip-path="url(#clip0_2014_96)">
<path fill-rule="evenodd" clip-rule="evenodd" d="M7.58803 0.161265C7.16846 0.369018 6.83281 0.771319 6.70842 1.21558C6.36214 2.4524 7.53592 3.62618 8.77274 3.2799C10.2871 2.85588 10.4131 0.72444 8.95963 0.117277C8.54929 -0.0541444 7.98681 -0.036096 7.58803 0.161265ZM12.8965 3.37006C12.2458 3.515 11.634 4.30319 11.634 4.99638C11.634 5.72004 12.2416 6.47549 12.9448 6.62629C13.9762 6.84748 14.9116 6.14757 14.9789 5.10412C15.0534 3.94965 14.0489 3.11324 12.8965 3.37006ZM1.10402 6.73723C-0.328448 7.28041 -0.379468 9.2891 1.02425 9.87548C2.18209 10.3591 3.49587 9.35957 3.32976 8.12134C3.19296 7.10094 2.03832 6.38298 1.10402 6.73723ZM7.56092 6.85545C6.84664 7.22861 6.49614 8.01883 6.70842 8.77718C7.12518 10.2657 9.1934 10.4259 9.84424 9.02017C10.2565 8.1297 9.7576 7.0053 8.8265 6.7263C8.35567 6.58527 8.01072 6.62043 7.56092 6.85545ZM16.1053 6.73723C14.6729 7.28041 14.6219 9.2891 16.0256 9.87548C17.1834 10.3591 18.4972 9.35957 18.3311 8.12134C18.1943 7.10094 17.0396 6.38298 16.1053 6.73723ZM19.9933 8.31698V9.99682H21.634H23.2748V12.4996V15.0024L24.1514 14.9803L25.028 14.9582L25.5449 12.9658C25.8293 11.87 26.0866 10.8742 26.1168 10.7528L26.1715 10.5321L26.4191 10.6888C27.6139 11.4453 28.4303 13.0594 28.3395 14.4853L28.3069 14.9973H31.1641H34.0212L34.509 13.6104L34.9968 12.2236L34.9957 10.0801C34.9947 8.06688 34.9847 7.91609 34.8313 7.59934C34.6361 7.19618 34.237 6.84865 33.8287 6.7263C33.6156 6.66246 31.6079 6.63715 26.7621 6.63715H19.9933V8.31698ZM12.5885 10.1621C12.1689 10.3699 11.8332 10.7722 11.7089 11.2165C11.3626 12.4533 12.5364 13.6271 13.7732 13.2808C15.2875 12.8568 15.4136 10.7253 13.9601 10.1182C13.5497 9.94673 12.9873 9.96478 12.5885 10.1621ZM7.89603 13.3709C7.24534 13.5159 6.63357 14.3041 6.63357 14.9973C6.63357 15.7209 7.24112 16.4764 7.94439 16.6272C8.97581 16.8484 9.91112 16.1485 9.97847 15.105C10.0529 13.9505 9.04847 13.1141 7.89603 13.3709ZM26.9861 17.4656C24.6135 18.9418 23.643 19.6662 22.4032 20.8857C20.7096 22.5517 19.38 24.923 18.8065 27.3003C18.4509 28.7741 18.3438 29.8628 18.297 32.4793L18.2519 34.999H29.0454C36.2655 34.999 39.8388 34.9728 39.8388 34.92C39.8388 34.7028 39.5727 33.2267 39.4094 32.5379C39.125 31.3383 38.7156 30.2321 38.0681 28.914C37.1573 27.06 36.2831 25.8395 34.6461 24.1369C33.319 22.7566 33.0413 22.1612 33.0413 20.6971C33.0413 20.0417 33.1711 18.3309 33.318 17.0482L33.3651 16.638L30.8397 16.6386L28.3143 16.6391L26.9861 17.4656ZM18.2905 37.675C18.3282 38.8148 18.4107 39.108 18.8046 39.502C19.3391 40.0364 18.5714 39.9995 29.1295 39.9995C39.5797 39.9995 38.9652 40.0264 39.4775 39.5461C39.9011 39.1488 39.9914 38.8213 39.9933 37.675L39.995 36.6398H29.1256H18.2562L18.2905 37.675Z" fill="white"/>
</g>
<defs>
<clipPath id="clip0_2014_96">
<rect width="40" height="40" fill="white"/>
</clipPath>
</defs>
</svg>
