<svg width="30" height="30" viewBox="0 0 30 30" fill="none" xmlns="http://www.w3.org/2000/svg">
<g id="Frame">
<path id="Vector" d="M4.99813 2.5C4.30936 2.5 3.75 3.05506 3.75 3.73975V26.2603C3.75 26.9309 4.30595 27.5 4.99175 27.5H25.0082C25.6939 27.5 26.25 26.9361 26.25 26.2406L26.2496 8.75L20 2.5H4.99813ZM13.125 9.375H15.625C15.625 12.4874 18.3045 15.8255 21.6453 16.9391L21.0732 19.3625C17.1543 18.8026 13.1026 20.4755 9.44337 22.9151L7.96912 20.8989C9.32686 19.8128 10.6287 17.9696 11.5937 15.8168C12.5554 13.6716 13.125 11.3469 13.125 9.375ZM13.875 16.8395C14.2091 16.094 14.5054 15.3204 14.7546 14.5356C15.3443 15.4414 16.0691 16.2727 16.8877 16.9941C15.6605 17.2139 14.4583 17.5745 13.2941 18.0345C13.5 17.6429 13.6939 17.2435 13.875 16.8395Z" fill="white"/>
</g>
</svg>
