<svg width="30" height="30" viewBox="0 0 30 30" fill="none" xmlns="http://www.w3.org/2000/svg">
<path d="M23.75 27.5H6.25C4.17894 27.5 2.5 25.8211 2.5 23.75V3.75C2.5 3.05965 3.05965 2.5 3.75 2.5H21.25C21.9404 2.5 22.5 3.05965 22.5 3.75V18.75H27.5V23.75C27.5 25.8211 25.8211 27.5 23.75 27.5ZM22.5 21.25V23.75C22.5 24.4404 23.0596 25 23.75 25C24.4404 25 25 24.4404 25 23.75V21.25H22.5ZM7.5 8.75V11.25H17.5V8.75H7.5ZM7.5 13.75V16.25H17.5V13.75H7.5ZM7.5 18.75V21.25H13.75V18.75H7.5Z" fill="white"/>
</svg>
