<svg width="48" height="48" viewBox="0 0 48 48" fill="none" xmlns="http://www.w3.org/2000/svg">
<g clip-path="url(#clip0_2014_550)">
<path d="M10 8H18L22 18L17 21C19.1419 25.3431 22.6569 28.8581 27 31L30 26L40 30V38C40 39.0609 39.5786 40.0783 38.8284 40.8284C38.0783 41.5786 37.0609 42 36 42C28.1985 41.5259 20.8403 38.213 15.3137 32.6863C9.78701 27.1597 6.4741 19.8015 6 12C6 10.9391 6.42143 9.92172 7.17157 9.17157C7.92172 8.42143 8.93913 8 10 8Z" stroke="#00C2FF" stroke-width="2" stroke-linecap="round" stroke-linejoin="round"/>
<path d="M30 14C31.0609 14 32.0783 14.4214 32.8284 15.1716C33.5786 15.9217 34 16.9391 34 18" stroke="#00C2FF" stroke-width="2" stroke-linecap="round" stroke-linejoin="round"/>
<path d="M30 6C33.1826 6 36.2348 7.26428 38.4853 9.51472C40.7357 11.7652 42 14.8174 42 18" stroke="#00C2FF" stroke-width="2" stroke-linecap="round" stroke-linejoin="round"/>
</g>
<defs>
<clipPath id="clip0_2014_550">
<rect width="48" height="48" fill="white"/>
</clipPath>
</defs>
</svg>
