<svg width="60" height="60" viewBox="0 0 60 60" fill="none" xmlns="http://www.w3.org/2000/svg">
<path fill-rule="evenodd" clip-rule="evenodd" d="M54.9124 1.07087C54.1282 1.23137 53.3336 1.66558 52.7561 2.2492C52.4835 2.52464 45.6826 10.1842 37.6431 19.2702L23.0258 35.7904L18.23 31.4267C15.5922 29.0266 13.0806 26.8479 12.6487 26.5855C8.43622 24.0248 2.77895 25.7752 0.739282 30.2703C-0.358067 32.6887 -0.225225 35.6394 1.08074 37.8578C1.69283 38.8975 16.6303 57.1856 17.4218 57.8642C18.1714 58.5071 19.6408 59.244 20.6537 59.4852C21.6023 59.7111 23.3261 59.7091 24.262 59.4812C25.9754 59.0638 27.7849 57.9228 28.7775 56.6336C29.3143 55.9364 59.1738 7.92505 59.7159 6.88758C59.9286 6.48023 59.9982 6.10242 60 5.34573C60.004 3.6121 59.1417 2.20724 57.6281 1.48142C56.7148 1.04334 55.7552 0.898198 54.9124 1.07087ZM56.8306 4.20936C57.7896 5.16838 58.9613 3.09931 42.0745 30.2703C33.7602 43.648 26.7635 54.8253 26.5261 55.1086C26.2886 55.392 25.7825 55.8234 25.4012 56.0673C23.2925 57.4161 20.4839 57.1464 18.8269 55.4359C18.5204 55.1196 14.9798 50.8314 10.9588 45.9066C5.59042 39.3317 3.53671 36.7217 3.23 36.0838C2.84003 35.273 2.81223 35.1173 2.81223 33.745C2.81223 32.3698 2.83976 32.2169 3.23789 31.3765C4.33163 29.0678 6.78613 27.7416 9.2004 28.1551C10.8683 28.4408 11.1722 28.6668 16.8905 33.8728C19.8256 36.5447 22.3501 38.7969 22.5006 38.8775C22.9433 39.1143 23.6465 39.0524 23.9734 38.7478C24.1364 38.596 30.9798 30.883 39.1808 21.608C47.3819 12.333 54.3239 4.51887 54.6076 4.24317C55.0532 3.81016 55.2078 3.742 55.7433 3.742C56.2736 3.742 56.4309 3.80963 56.8306 4.20936Z" fill="#00C2FF"/>
</svg>
