<svg width="72" height="72" viewBox="0 0 72 72" fill="none" xmlns="http://www.w3.org/2000/svg">
<g clip-path="url(#clip0_2014_300)">
<path fill-rule="evenodd" clip-rule="evenodd" d="M44.1026 2.13866C43.3361 2.31882 42.8164 2.73316 42.4767 3.43497C42.2023 4.00177 42.1834 4.27799 42.1834 7.71449C42.1834 9.96802 42.2412 11.541 42.333 11.7839C42.5163 12.269 43.1081 12.9104 43.6179 13.1768C43.9369 13.3435 46.0964 13.3753 57.1074 13.3753H70.2171L70.7936 13.0374C71.1156 12.8487 71.509 12.4524 71.685 12.1393C71.9896 11.5972 71.9999 11.4543 71.9999 7.75991C71.9999 4.23299 71.9786 3.89924 71.7218 3.39573C71.3806 2.72725 70.8317 2.32051 70.0168 2.13261C69.2331 1.95202 44.873 1.95765 44.1026 2.13866ZM32.5594 3.95465C31.7045 4.2884 30.8835 5.06349 30.4019 5.99146C29.9021 6.95459 29.884 8.34387 30.3577 9.40615C30.7365 10.2558 31.81 11.3029 32.5542 11.5484L33.0415 11.7093L33.0409 17.0781L33.0405 22.4468L32.3843 22.7167C30.3461 23.5551 29.4154 26.1325 30.414 28.1734C30.8529 29.0707 31.5473 29.7454 32.4366 30.1388L33.0415 30.4064V35.7377V41.0689L32.4366 41.3365C30.9279 42.0039 30.025 43.4084 30.0262 45.0854C30.0268 45.8404 30.1065 46.239 30.3625 46.7662C30.7863 47.6391 31.6029 48.4374 32.4127 48.7703L33.0405 49.0285L33.0409 54.3972L33.0415 59.766L32.5542 59.9269C31.81 60.1724 30.7365 61.2195 30.3577 62.0692C29.8819 63.1361 29.9021 64.5182 30.4074 65.5011C31.6529 67.9237 34.7569 68.5613 36.7528 66.8044C38.9526 64.8681 38.4812 61.2994 35.8637 60.0734L35.1512 59.7397V54.3772V49.0147L35.6692 48.8274C36.423 48.5548 37.4598 47.5197 37.8327 46.6677C38.7006 44.6842 37.7445 42.2161 35.7699 41.3426L35.1512 41.0689V35.7377V30.4064L35.7699 30.1327C37.7445 29.2592 38.7006 26.7911 37.8327 24.8076C37.4598 23.9556 36.423 22.9205 35.6692 22.6479L35.1512 22.4606V17.102V11.7437L35.7685 11.4437C38.4657 10.1333 39.0035 6.69862 36.8189 4.73452C35.6517 3.6849 34.0166 3.38561 32.5594 3.95465ZM69.8048 4.45591C69.9754 4.90034 69.8998 10.9185 69.7214 11.0968C69.5928 11.2255 66.5909 11.2656 57.0684 11.2656C44.8695 11.2656 44.5809 11.2594 44.4386 10.9936C44.2829 10.7025 44.2289 4.84549 44.3784 4.45591C44.4553 4.25535 45.7064 4.23341 57.0916 4.23341C68.4769 4.23341 69.7279 4.25535 69.8048 4.45591ZM35.114 6.14785C36.2209 6.84868 36.2268 8.62094 35.1244 9.29293C34.1449 9.89025 32.9142 9.57099 32.4058 8.58788C31.5389 6.91141 33.5121 5.13367 35.114 6.14785ZM48.4357 6.96964C47.8993 7.50591 48.0586 8.40561 48.7454 8.71854C48.9838 8.82712 51.5291 8.87466 57.1053 8.87466C63.8663 8.87466 65.1847 8.84245 65.5201 8.6689C66.1955 8.31968 66.302 7.52391 65.7476 6.96964L65.4024 6.62436H57.0916H48.7808L48.4357 6.96964ZM8.83992 19.4121C8.49351 19.7585 8.42881 19.9356 8.42881 20.5373V21.2513H7.03152C5.48654 21.2513 5.03704 21.3686 4.4379 21.9284C3.52203 22.7838 3.51274 22.8537 3.50937 28.9624L3.50627 34.4935L3.91738 34.9046C4.43734 35.4246 4.82551 35.4246 5.34548 34.9046L5.75658 34.4935V32.584V30.6745H15.7423H25.728V40.2804C25.728 47.5643 25.6872 49.9272 25.5592 50.0552C25.4345 50.18 24.1309 50.224 20.5664 50.224H15.7423L15.7399 49.4153C15.7364 48.2747 15.4007 46.8246 14.9149 45.8525L14.5 45.0223L14.9842 44.7924C15.7261 44.4404 16.5334 43.4352 16.7291 42.6201C17.0988 41.0786 16.2789 39.5016 14.7813 38.8742C14.4484 38.7346 14.3513 38.6287 14.4461 38.5086C14.5195 38.4157 14.9994 37.8158 15.5125 37.1756C16.5271 35.9101 16.6554 35.4656 16.1769 34.8742C15.9163 34.552 15.8367 34.5409 13.482 34.4975C12.1474 34.4728 10.9093 34.4894 10.7306 34.5343C9.9202 34.7377 9.58856 35.6829 10.104 36.3198C10.3442 36.6165 10.5087 36.657 11.6511 36.7009C12.3542 36.7281 12.9294 36.7801 12.9294 36.8167C12.9294 36.8532 12.4864 37.4207 11.9449 38.0777C11.1539 39.0376 10.9604 39.3661 10.9604 39.7498C10.9604 40.5631 11.3655 40.8008 12.7514 40.8008C13.8117 40.8008 13.9605 40.8346 14.2719 41.1461C14.7149 41.589 14.7232 42.1993 14.2917 42.6047C13.8302 43.0382 12.6933 43.0289 11.9773 42.5859C10.2348 41.5074 7.963 41.1214 6.10467 41.5879L5.75658 41.6752V40.2426C5.75658 38.8469 5.74603 38.7996 5.34548 38.3991C5.11932 38.1729 4.79809 37.988 4.63143 37.988C4.46476 37.988 4.14353 38.1729 3.91738 38.3991L3.50627 38.8102V40.7662V42.7222L2.89658 43.16C1.7651 43.9726 0.618151 45.7622 0.200016 47.3679C-0.0659414 48.3887 -0.0669259 50.2077 0.197625 51.2022C0.570472 52.603 1.23839 53.7464 2.29913 54.7991C3.92483 56.4129 5.62831 57.1155 7.91448 57.1155C10.7352 57.1155 13.5307 55.4422 14.7707 53.0114L15.0448 52.4743H20.3588H25.6727L26.4056 52.109C26.929 51.8483 27.2385 51.5733 27.4882 51.1473L27.8377 50.5508V36.88C27.8377 23.7427 27.8273 23.1888 27.5713 22.6873C27.0025 21.5728 26.276 21.2513 24.3261 21.2513H22.9151V20.4177C22.9151 19.6846 22.8704 19.5488 22.5445 19.2926C22.053 18.9058 21.5726 18.9244 21.1508 19.3463C20.8672 19.6297 20.8055 19.8308 20.8055 20.4715V21.2513H15.7423H10.6791V20.625C10.6791 19.8387 10.4645 19.3578 10.0241 19.1571C9.5008 18.9187 9.2873 18.9647 8.83992 19.4121ZM43.7347 20.9114C43.0918 21.1903 42.7729 21.4914 42.4497 22.1247C42.208 22.5984 42.1834 22.9943 42.1836 26.4144C42.1838 30.6514 42.2081 30.7731 43.2161 31.5787L43.7565 32.0106L56.7179 32.0514C63.8466 32.0737 69.8863 32.0548 70.1393 32.0092C70.6671 31.9142 71.4974 31.2385 71.7961 30.6605C71.9592 30.3451 71.9999 29.5102 71.9999 26.4713C71.9999 22.5385 71.9533 22.1607 71.3927 21.5492C70.6738 20.7648 70.268 20.6952 66.3985 20.6918L62.8364 20.6887L62.4253 21.0999C62.1991 21.326 62.0142 21.6079 62.0142 21.7261C62.0142 22.0689 62.3132 22.6322 62.5606 22.7555C62.6855 22.8178 64.3699 22.9004 66.3038 22.9391L69.8199 23.0094V26.3848V29.7603L57.1707 29.7961C47.1443 29.8247 44.4982 29.7954 44.4095 29.6555C44.2794 29.4509 44.251 23.4936 44.3784 23.1616C44.4546 22.9628 45.2051 22.9391 51.404 22.9391C56.1908 22.9391 58.4505 22.8907 58.6869 22.7829C59.0318 22.6257 59.3419 22.1254 59.3419 21.7261C59.3419 21.6079 59.157 21.326 58.9308 21.0999L58.5197 20.6887L51.3712 20.6942C45.3246 20.6989 44.1475 20.7323 43.7347 20.9114ZM8.4575 24.2258C8.52797 25.1989 8.85426 25.6113 9.55396 25.6113C10.2537 25.6113 10.58 25.1989 10.6504 24.2258L10.7129 23.361H15.7592H20.8055V24.1946C20.8055 24.9278 20.8502 25.0635 21.1761 25.3197C21.6443 25.6881 22.0741 25.6898 22.5377 25.3252C22.8407 25.0868 22.9084 24.905 22.9434 24.2352L22.9855 23.4313L24.1303 23.3907C25.7644 23.3327 25.728 23.2706 25.728 26.1135V28.4242H15.7423H5.75658V26.0403C5.75658 23.2492 5.68485 23.3718 7.32195 23.3652L8.39506 23.361L8.4575 24.2258ZM34.9766 24.7667C35.9188 25.3411 36.23 26.3729 35.7381 27.2903C35.0659 28.5436 33.2092 28.6046 32.4733 27.3976C31.4787 25.7664 33.365 23.784 34.9766 24.7667ZM48.4357 25.6753C48.0138 26.0971 47.9952 26.5775 48.382 27.0691L48.6734 27.4397H57.0773H65.4812L65.7871 27.1142C66.1927 26.6823 66.1768 26.1045 65.7476 25.6753L65.4024 25.33H57.0916H48.7808L48.4357 25.6753ZM18.4588 34.6135C18.0742 34.7685 17.852 35.1728 17.852 35.7182C17.852 36.2327 18.4097 36.7222 18.9961 36.7222H19.399V40.5899C19.399 44.2535 19.4137 44.4722 19.6768 44.7353C20.2973 45.3559 21.2119 45.1678 21.5205 44.356C21.6059 44.1316 21.6446 42.2649 21.6198 39.5692L21.579 35.1505L21.1844 34.8111C20.8436 34.5181 20.6519 34.4731 19.7779 34.4807C19.2214 34.4856 18.6279 34.5454 18.4588 34.6135ZM43.6601 39.6156C43.4281 39.7363 43.0877 39.9731 42.9036 40.1421C42.2323 40.7584 42.1834 41.0942 42.1834 45.0916C42.1834 48.4813 42.2081 48.8773 42.4497 49.3506C42.7787 49.9952 43.0981 50.2911 43.7662 50.5702C44.2195 50.7596 45.8824 50.7861 57.1223 50.7835C69.3572 50.7805 69.9877 50.768 70.5394 50.5175C70.8578 50.3729 71.3009 50.0154 71.5239 49.7231L71.9296 49.1917L71.9712 45.3131C71.9942 43.18 71.9775 41.2932 71.9341 41.1204C71.8179 40.6574 71.0168 39.8025 70.4947 39.5844C70.1238 39.4294 67.6451 39.3945 57.061 39.3952C45.5765 39.3961 44.0335 39.4214 43.6601 39.6156ZM69.8199 45.0905V48.4659L57.1707 48.5018C47.1443 48.5303 44.4982 48.5011 44.4095 48.3611C44.2792 48.1562 44.2511 42.199 44.3787 41.8664C44.4562 41.6645 45.6726 41.6467 57.1421 41.6792L69.8199 41.715V45.0905ZM35.0845 43.4753C35.598 43.7926 35.9953 44.5071 35.9945 45.1117C35.9933 45.9853 34.9785 46.9875 34.0941 46.9886C33.1097 46.9899 32.1976 46.0577 32.1976 45.0505C32.1976 43.6008 33.8387 42.7053 35.0845 43.4753ZM9.57436 43.8926C13.5454 45.1321 14.8025 50.3333 11.8456 53.2902C8.58985 56.5459 3.06789 54.7533 2.22965 50.1684C1.9357 48.5604 2.54385 46.5866 3.69966 45.3974C5.26137 43.7905 7.45035 43.2298 9.57436 43.8926ZM48.382 44.4062C47.9952 44.8978 48.0138 45.3782 48.4357 45.8L48.7808 46.1453H57.0916H65.4024L65.7476 45.8C66.1906 45.3571 66.1989 44.7469 65.7674 44.3414L65.4418 44.0356H57.0576H48.6734L48.382 44.4062ZM7.03264 44.8282C6.76542 45.1678 6.74109 45.3855 6.74109 47.4364C6.74109 49.6248 6.74868 49.6818 7.08637 50.0193C7.41604 50.349 7.50942 50.3645 9.16086 50.3601C10.2978 50.3572 10.9665 50.297 11.1133 50.1843C11.4726 49.9084 11.677 49.4122 11.584 49.0417C11.4335 48.4423 11.0435 48.2233 9.99151 48.1481L9.0153 48.0782L8.96818 46.5364C8.92472 45.1148 8.89519 44.9739 8.58901 44.7262C8.09746 44.3286 7.38903 44.375 7.03264 44.8282ZM43.5134 58.3621C42.904 58.7336 42.349 59.4397 42.2513 59.9676C42.2052 60.2169 42.1869 62.071 42.2106 64.0881L42.2537 67.7555L42.6279 68.3206C42.8337 68.6313 43.2451 69.0063 43.5421 69.1538C44.0593 69.4105 44.6141 69.4236 56.6697 69.461C65.0144 69.4869 69.488 69.4506 69.9417 69.3534C70.8135 69.1667 71.3704 68.7682 71.7218 68.0796C71.9786 67.5761 71.9999 67.2423 71.9999 63.7154C71.9999 60.021 71.9896 59.8781 71.685 59.336C71.509 59.0229 71.1156 58.6266 70.7936 58.4379L70.2171 58.1H61.7493H53.2814L52.9363 58.4453C52.7464 58.6352 52.591 58.9544 52.591 59.1549C52.591 59.3553 52.7464 59.6745 52.9363 59.8644L53.2814 60.2097H61.4171C67.5572 60.2097 69.594 60.251 69.7214 60.3785C69.8998 60.5568 69.9754 66.575 69.8048 67.0194C69.7279 67.22 68.4769 67.2419 57.0916 67.2419C45.7064 67.2419 44.4553 67.22 44.3784 67.0194C44.2289 66.6298 44.2829 60.7728 44.4386 60.4817C44.5735 60.2297 44.7545 60.2097 46.9063 60.2097C49.1842 60.2097 49.235 60.2031 49.5735 59.8644C49.7634 59.6745 49.9188 59.3553 49.9188 59.1549C49.9188 58.9544 49.7634 58.6352 49.5735 58.4453C49.2315 58.1031 49.2043 58.1 46.5848 58.1006C44.2581 58.101 43.8901 58.1324 43.5134 58.3621ZM35.1606 62.2161C36.4337 63.0741 36.0881 65.1504 34.6057 65.5495C32.5786 66.0954 31.3266 63.4974 32.9874 62.1911C33.5094 61.7804 34.5315 61.7922 35.1606 62.2161ZM48.7233 62.7705C48.0115 63.1787 47.8831 63.9532 48.4357 64.5057L48.7808 64.8509H57.0916H65.4024L65.7476 64.5057C66.302 63.9514 66.1955 63.1556 65.5201 62.8064C65.1843 62.6327 63.8673 62.6013 57.0635 62.6049C51.2667 62.608 48.9257 62.6545 48.7233 62.7705Z" fill="#00C2FF"/>
</g>
<defs>
<clipPath id="clip0_2014_300">
<rect width="72" height="72" fill="white"/>
</clipPath>
</defs>
</svg>
