<svg width="72" height="72" viewBox="0 0 72 72" fill="none" xmlns="http://www.w3.org/2000/svg">
<path fill-rule="evenodd" clip-rule="evenodd" d="M34.2001 0.251355C33.3525 0.523511 32.7496 0.888494 31.7307 1.74589L31.0622 2.30849L28.3062 2.37881C25.752 2.44393 25.5184 2.47178 25.1157 2.75898C24.8768 2.92945 24.6001 3.16687 24.5008 3.28642C24.3423 3.47742 23.4731 3.504 17.4049 3.504C9.68303 3.504 9.403 3.53185 8.0847 4.43299C7.30269 4.96759 6.49452 6.04046 6.18903 6.9499C6.03305 7.41404 6 12.8296 6 37.8956V68.2787L6.46147 69.216C7.02519 70.3612 8.02886 71.308 9.10637 71.7111C9.87502 71.9987 9.99457 72 36.0285 72C62.0625 72 62.1821 71.9987 62.9507 71.7111C64.0282 71.308 65.0319 70.3612 65.5956 69.216L66.0571 68.2787V37.8956C66.0571 12.8296 66.024 7.41404 65.868 6.9499C65.5625 6.04046 64.7544 4.96759 63.9724 4.43299C62.6541 3.53185 62.374 3.504 54.6521 3.504C48.584 3.504 47.7148 3.47742 47.5563 3.28642C47.457 3.16687 47.1803 2.92945 46.9413 2.75898C46.5388 2.47192 46.3049 2.44393 43.757 2.37881L41.0072 2.30849L40.2408 1.66459C39.8193 1.31044 39.2529 0.889338 38.9822 0.728577C37.7333 -0.0123617 35.6643 -0.218834 34.2001 0.251355ZM37.646 2.83789C37.8781 2.96053 38.4338 3.37263 38.8809 3.75379C39.328 4.13481 39.9367 4.51935 40.2334 4.60824C40.5487 4.70261 41.7743 4.76984 43.1828 4.76984H45.5927V7.16087V9.5519H36.0285H26.4644V7.16087V4.76984H28.8743C30.2785 4.76984 31.5086 4.70261 31.822 4.60866C32.1178 4.52005 32.7794 4.09937 33.2922 3.67376C33.8049 3.24816 34.4564 2.81327 34.7398 2.70737C35.3967 2.46179 37.0774 2.53718 37.646 2.83789ZM33.9828 5.11513C33.5216 5.57618 33.5192 6.3046 33.9773 6.83653C34.3132 7.2267 34.3357 7.2312 35.9378 7.22979C37.3609 7.22866 37.6069 7.19266 37.9539 6.93443C38.5177 6.51515 38.581 5.62175 38.0823 5.12301C37.744 4.78475 37.657 4.76984 36.0285 4.76984C34.4105 4.76984 34.3112 4.78658 33.9828 5.11513ZM23.9327 7.16087V8.28606L18.5529 8.28691C15.2862 8.28733 12.9676 8.34471 12.65 8.4329C12.0184 8.60829 11.3503 9.14697 11.0231 9.74445C10.7978 10.1561 10.7821 11.9865 10.7821 37.8223C10.7821 63.8722 10.7961 65.4857 11.0281 65.9096C11.1634 66.157 11.5065 66.5368 11.7907 66.7535L12.3073 67.1476L35.8769 67.1811L59.4466 67.2147L60.0049 66.8977C60.7944 66.4496 61.1663 65.8299 61.2715 64.7868C61.32 64.3061 61.3407 51.8239 61.3173 37.0488C61.2778 11.991 61.2588 10.1553 61.0339 9.74445C60.7068 9.14697 60.0387 8.60829 59.407 8.4329C59.0895 8.34471 56.7709 8.28733 53.5042 8.28691L48.1243 8.28606V7.16087V6.03568H54.9237H61.723L62.3355 6.35959C62.7541 6.58098 63.0504 6.87732 63.2718 7.29589L63.5957 7.90842V37.7786C63.5957 62.6885 63.5638 67.7251 63.4039 68.1081C63.1593 68.6935 62.4686 69.2759 61.7981 69.4621C61.0709 69.6641 10.9861 69.6641 10.259 69.4621C9.58852 69.2759 8.89779 68.6935 8.6532 68.1081C8.49328 67.7251 8.46136 62.6885 8.46136 37.7786V7.90842L8.78527 7.29589C9.00665 6.87732 9.303 6.58098 9.72157 6.35959L10.3341 6.03568H17.1333H23.9327V7.16087ZM24.7848 11.3006C25.0787 11.5663 25.5612 11.8507 25.8567 11.9328C26.6114 12.1424 45.3855 12.1398 46.2185 11.93C46.5899 11.8366 47.0101 11.5889 47.293 11.2971L47.7575 10.8177H53.2856H58.8137V37.752V64.6863H36.0285H13.2434V37.752V10.8177H18.7469H24.2503L24.7848 11.3006ZM19.1583 14.577C18.2491 14.898 17.2573 15.9444 16.9812 16.8739C16.6598 17.9564 16.6577 25.1915 16.9785 26.272C17.2329 27.1284 17.9595 28 18.7895 28.4441C19.3441 28.7411 19.5044 28.7505 24.0031 28.7505C29.1803 28.7505 29.1563 28.7544 30.1681 27.7424C31.0397 26.871 31.1708 26.443 31.2216 24.3047C31.2652 22.4698 31.2535 22.3751 30.9403 22.019C30.7605 21.8147 30.4159 21.6096 30.1743 21.5632C29.8178 21.495 29.6469 21.5578 29.2666 21.8978L28.7979 22.3165L28.7211 24.1034C28.6545 25.6577 28.6089 25.9164 28.3715 26.0898C28.1507 26.251 27.3129 26.2891 23.9863 26.2891H19.8743L19.5829 25.9185C19.3036 25.5635 19.2913 25.3814 19.2913 21.574C19.2913 17.873 19.3097 17.5772 19.5598 17.268C19.8231 16.9424 19.8861 16.9346 22.8073 16.8656L25.7862 16.7953L26.1253 16.4007C26.5944 15.8548 26.5685 15.2603 26.0533 14.7451L25.6422 14.334L22.7129 14.3451C20.4327 14.3537 19.6451 14.4051 19.1583 14.577ZM30.8245 14.4309C30.7085 14.4719 29.1521 15.9594 27.366 17.7365L24.1182 20.9677L23.6388 20.6753C22.8292 20.1819 22.1421 20.3321 21.7511 21.0881C21.4309 21.7073 21.6023 22.0868 22.6658 23.1135C23.6701 24.0832 23.9488 24.187 24.6078 23.837C25.1783 23.5342 32.196 16.4319 32.3596 15.9918C32.7019 15.0708 31.7504 14.1032 30.8245 14.4309ZM36.3738 18.3361C36.1354 18.5744 36.0285 18.8377 36.0285 19.1864C36.0285 19.535 36.1354 19.7983 36.3738 20.0366C36.7122 20.375 36.7645 20.3819 39.0196 20.3819C41.1126 20.3819 41.3469 20.357 41.6169 20.1054C42.1937 19.5681 42.1975 18.8083 41.6262 18.2761C41.3446 18.0136 41.1362 17.9908 39.0196 17.9908C36.7645 17.9908 36.7122 17.9977 36.3738 18.3361ZM36.3738 23.1182C36.001 23.4909 35.9184 24.1328 36.1804 24.6224C36.5378 25.2902 36.7368 25.3046 45.553 25.3037C50.8479 25.3033 54.0102 25.2504 54.3478 25.1566C54.704 25.0576 54.9436 24.8777 55.0862 24.6018C55.3969 24.0009 55.3467 23.6444 54.8863 23.184L54.4752 22.7729H45.597H36.719L36.3738 23.1182ZM18.9366 31.475C18.239 31.7919 17.5516 32.4646 17.1409 33.2324C16.8384 33.7981 16.83 33.9373 16.83 38.3849V42.956L17.2637 43.7296C17.7938 44.675 18.7041 45.334 19.7917 45.5597C20.3065 45.6666 21.9162 45.7057 24.5372 45.6749L28.5038 45.6283L29.2723 45.2064C30.1278 44.7368 30.8783 43.8542 31.0994 43.058C31.1794 42.7698 31.2452 41.7559 31.2456 40.8048C31.2465 39.1557 31.2304 39.0593 30.9012 38.7302C30.6826 38.5115 30.3955 38.3849 30.1185 38.3849C29.0367 38.3849 28.7148 39.0107 28.7148 41.1128C28.7148 43.2803 28.9685 43.167 24.1177 43.167C20.0877 43.167 19.5986 43.101 19.3787 42.5277C19.3307 42.4026 19.2933 40.5173 19.2958 38.3382C19.2991 35.4458 19.3465 34.3162 19.4716 34.1532C19.8473 33.6639 20.2325 33.6029 22.9741 33.5984C25.816 33.5937 25.971 33.5632 26.3008 32.9441C26.5612 32.4553 26.4924 31.9303 26.1191 31.5571L25.774 31.2118L22.6381 31.2149C19.9057 31.2176 19.4296 31.2511 18.9366 31.475ZM27.3111 34.5171L23.9953 37.8225L23.6859 37.5129C23.0857 36.9128 21.9956 37.2164 21.6672 38.0752C21.4801 38.5641 21.8165 39.1977 22.7092 40.0375C23.3731 40.6623 23.5766 40.776 24.0308 40.776C24.5462 40.776 24.7239 40.6196 28.4978 36.8438C32.2171 33.1227 32.4279 32.8841 32.4279 32.3952C32.4279 31.7192 31.8757 31.2118 31.1399 31.2118C30.6584 31.2118 30.4238 31.4144 27.3111 34.5171ZM36.4724 35.0828C36.1169 35.3819 36.0285 35.5634 36.0285 35.9939C36.0285 36.4244 36.1169 36.6059 36.4724 36.905L36.9163 37.2784L39.1573 37.234L41.3982 37.1894L41.7373 36.7947C41.9264 36.5748 42.0764 36.2203 42.0764 35.9939C42.0764 35.7674 41.9264 35.413 41.7373 35.193L41.3982 34.7984L39.1573 34.7538L36.9163 34.7093L36.4724 35.0828ZM36.782 39.6496C36.1276 39.9136 35.8017 40.961 36.2088 41.4914C36.6255 42.0341 36.7584 42.0418 45.705 42.0418C54.1796 42.0418 54.4253 42.0342 54.7704 41.7627C55.217 41.4114 55.363 40.8516 55.1451 40.3257C54.8002 39.4932 54.9891 39.5093 45.6348 39.519C40.9316 39.5239 36.9478 39.5827 36.782 39.6496ZM19.2559 48.1497C18.1481 48.545 17.2962 49.4457 16.9537 50.5835C16.6665 51.538 16.6774 58.8728 16.9674 59.8496C17.2184 60.6951 17.9874 61.6305 18.7789 62.0539C19.3398 62.3539 19.5283 62.3671 23.8194 62.408C28.1416 62.4491 28.299 62.4411 28.9924 62.1428C29.8532 61.7724 30.8428 60.7266 31.0792 59.9374C31.1712 59.6304 31.2465 58.6198 31.2465 57.6917C31.2465 56.2215 31.2105 55.9583 30.9674 55.6492C30.6247 55.2134 30.059 55.0556 29.5684 55.2588C28.9311 55.5227 28.7995 55.9043 28.7414 57.6538C28.6608 60.0804 29.0329 59.9042 23.9887 59.9042H19.8743L19.5829 59.5336C19.3036 59.1786 19.2913 58.9965 19.2913 55.1891C19.2913 51.4881 19.3097 51.1923 19.5598 50.8831C19.8231 50.5575 19.8861 50.5496 22.8073 50.4807L25.7862 50.4104L26.1253 50.0157C26.5944 49.4699 26.5685 48.8754 26.0533 48.3602L25.6422 47.949L22.7129 47.9552C20.6361 47.9596 19.63 48.0161 19.2559 48.1497ZM27.4332 51.2729L24.0988 54.5968L23.6776 54.2968C22.7886 53.6639 21.6261 54.1628 21.6261 55.1773C21.6261 55.6203 21.7506 55.8164 22.5333 56.6074C23.4767 57.5607 23.8295 57.7466 24.3797 57.5807C24.8308 57.4447 32.075 50.2342 32.3133 49.6839C32.6724 48.8547 32.0309 47.949 31.0843 47.949C30.8588 47.949 29.8076 48.906 27.4332 51.2729ZM36.3738 51.9512C36.1354 52.1895 36.0285 52.4528 36.0285 52.8014C36.0285 53.1501 36.1354 53.4134 36.3738 53.6517C36.7122 53.9901 36.7645 53.9969 39.0196 53.9969C41.1126 53.9969 41.3469 53.972 41.6169 53.7204C42.1937 53.1832 42.1975 52.4234 41.6262 51.8912C41.3446 51.6287 41.1362 51.6059 39.0196 51.6059C36.7645 51.6059 36.7122 51.6128 36.3738 51.9512ZM36.3738 56.7333C36.1354 56.9715 36.0285 57.2348 36.0285 57.5835C36.0285 57.9322 36.1354 58.1955 36.3738 58.4337L36.719 58.779L45.6215 58.7745C55.0234 58.7699 54.7789 58.7866 55.1339 58.1202C55.3976 57.6248 55.3251 57.2379 54.8863 56.7991L54.4752 56.388H45.597H36.719L36.3738 56.7333Z" fill="#00C2FF"/>
</svg>
