<svg width="114" height="114" viewBox="0 0 114 114" fill="none" xmlns="http://www.w3.org/2000/svg">
<g clip-path="url(#clip0_2014_308)">
<path d="M107.606 62.0111C103.188 64.262 98.3521 65.7627 93.7666 67.5133C93.1831 67.7634 92.5161 67.0965 92.5161 66.5963C92.5996 63.6785 92.5162 60.5939 93.4332 57.8426L93.3498 57.7592C83.9291 46.8378 65.4211 45.6708 52.0822 45.0037C36.7423 44.17 20.5687 45.6707 7.06295 53.3406C5.56231 54.5078 3.9783 55.7583 2.56103 57.1756C1.89408 57.8425 0.97702 56.9255 1.5606 56.1752C1.81071 55.9251 2.06082 55.675 2.31092 55.4248C1.97745 55.0914 1.97745 54.5912 2.39429 54.1743C3.39472 53.3406 4.56188 52.6737 5.64568 51.9234C28.9056 29.9973 73.1745 30.7476 96.6012 51.3398C97.1848 49.2556 97.9351 47.1716 98.4354 45.0039C98.6019 44.0034 99.8526 44.087 100.353 44.7539C103.938 49.5058 105.688 55.2584 108.023 60.5939C108.273 61.0106 108.273 61.6775 107.606 62.0111ZM99.7692 47.5048C99.1857 49.089 98.4353 50.5061 97.9351 52.1735C97.685 52.7573 97.1014 52.8404 96.7679 52.6737C96.5178 52.9238 96.1842 52.9239 95.8509 52.757C72.5909 36.1666 42.8282 33.5822 18.401 46.0043C29.5724 42.6695 41.911 42.3361 53.1658 42.9196C61.4195 43.3364 69.5061 44.4203 77.4262 46.5045C83.5955 48.1719 90.5985 51.0064 93.6833 56.9255C94.1001 56.0084 95.434 56.6754 95.2673 57.5091C94.9338 60.0101 94.6837 62.4278 94.6003 64.8455C98.3518 63.4281 102.187 62.0945 105.771 60.3436C103.854 56.0918 102.27 51.5065 99.7692 47.5048Z" fill="#00C2FF"/>
</g>
<defs>
<clipPath id="clip0_2014_308">
<rect width="80" height="79.9998" fill="white" transform="matrix(0.707107 0.707107 0.707107 -0.707107 0 56.5684)"/>
</clipPath>
</defs>
</svg>
