<svg width="72" height="72" viewBox="0 0 72 72" fill="none" xmlns="http://www.w3.org/2000/svg">
<path fill-rule="evenodd" clip-rule="evenodd" d="M4.93292 1.15253C3.06571 1.50859 1.3835 2.83897 0.509777 4.65038L0 5.70713V12.6817V19.6563L0.445949 20.5975C1.19399 22.1767 2.51225 23.3917 4.12373 23.9874C4.87796 24.2662 5.26516 24.2898 9.96841 24.3434L15.0052 24.4008L14.1753 25.4102C9.82159 30.7054 7.56888 37.8152 8.09697 44.5943C8.77836 53.3415 13.2162 61.0377 20.3601 65.8611C22.9154 67.5864 27.5008 69.5382 29.4049 69.711C30.1564 69.7794 30.2342 69.7567 30.6378 69.3533C30.972 69.0189 31.0685 68.7986 31.0685 68.3687C31.0685 67.5648 30.6259 67.1568 29.3594 66.7926C22.8977 64.9345 17.8226 61.1022 14.5016 55.5726C12.0354 51.4663 10.7411 46.3854 10.9694 41.7071C11.2746 35.4548 13.5032 30.2503 17.8925 25.5388L18.9755 24.3764H25.365H31.7545L31.7991 27.7698L31.8434 31.1631L32.3036 31.5742C32.8951 32.1022 33.4997 32.1096 34.6438 31.6025C37.937 30.1425 40.2431 27.7675 41.0788 24.9752L41.258 24.3764H46.8865H52.5151L52.9499 24.7423C53.833 25.4854 55.4973 27.4476 56.4531 28.8725C58.2545 31.5581 59.4907 34.395 60.1524 37.3606C61.365 42.7964 60.7514 48.1292 58.3265 53.229C55.2081 59.7872 49.5288 64.6165 42.4694 66.7128C41.0103 67.1461 40.5856 67.5174 40.5856 68.3597C40.5856 68.8294 40.6694 69.0046 41.0621 69.3554C41.4972 69.7442 41.6026 69.7746 42.273 69.7054C43.3594 69.5933 45.845 68.7239 47.7652 67.7844C50.7973 66.3008 53.0889 64.6217 55.595 62.0472C60.0269 57.4946 62.703 52.0036 63.5509 45.7228C63.7237 44.4431 63.6394 40.5591 63.4041 38.9596C62.6707 33.9726 60.5893 29.1955 57.4854 25.3747L56.7318 24.4469L61.9001 24.366C66.701 24.2909 67.126 24.264 67.8763 23.987C69.487 23.3922 70.8059 22.177 71.554 20.5975L72 19.6563V12.6817V5.70713L71.4921 4.65038C70.9115 3.44272 69.9176 2.36766 68.839 1.78052C67.3173 0.952313 68.9425 0.990638 35.9296 1.00515C17.4086 1.01332 5.3628 1.07053 4.93292 1.15253ZM66.9024 4.09692C67.567 4.2815 68.4671 5.07604 68.8751 5.83845C69.1772 6.40261 69.182 6.51054 69.182 12.6817C69.182 18.8855 69.1788 18.958 68.8698 19.5355C68.475 20.2737 67.5838 21.0423 66.8772 21.2539C66.4795 21.3731 62.6926 21.4175 52.9292 21.4175H39.527L39.0978 21.805C38.7483 22.1206 38.6427 22.3624 38.529 23.1083C38.3201 24.4781 37.5484 25.9387 36.4888 26.969C36.0027 27.4417 35.4085 27.943 35.1684 28.0831L34.7319 28.3375V25.3567V22.3756L34.2528 21.8966L33.7738 21.4175H19.7212C9.46427 21.4175 5.52132 21.3734 5.12285 21.2539C4.41623 21.0423 3.52504 20.2737 3.13024 19.5355C2.82124 18.958 2.818 18.8855 2.818 12.6817C2.818 6.52238 2.82336 6.40163 3.12263 5.84803C3.53378 5.08759 4.28632 4.38915 4.94912 4.15286C5.40704 3.9897 10.4065 3.95743 35.9296 3.95278C56.9688 3.94912 66.5301 3.99364 66.9024 4.09692ZM5.54527 7.68199C4.82203 8.07496 4.8302 8.32971 5.70787 12.7469C6.57215 17.0968 6.61132 17.1995 7.48828 17.4196C7.92578 17.5294 8.63253 17.2329 8.83599 16.8542C8.92405 16.6904 9.26109 15.7075 9.5853 14.6701C9.90937 13.6326 10.2075 12.8401 10.248 12.9088C10.2883 12.9776 10.5855 13.8769 10.9085 14.9072C11.2316 15.9375 11.6183 16.9028 11.7678 17.0523C12.3636 17.648 13.426 17.5072 13.8 16.7832C14.0261 16.3458 15.4296 9.43507 15.429 8.76241C15.4284 8.12343 15.231 7.80711 14.7218 7.62957C14.195 7.44598 13.6935 7.61013 13.404 8.06087C13.2898 8.23869 13.0557 9.11339 12.8835 10.0046C12.7113 10.8958 12.5291 11.6721 12.4787 11.7298C12.4281 11.7875 12.1412 11.0115 11.8413 10.0053C11.5411 8.99898 11.1776 8.04903 11.0333 7.89418C10.6571 7.49036 10.173 7.41019 9.67266 7.66888C9.28476 7.86953 9.18275 8.07679 8.67128 9.70405C8.35806 10.7006 8.10176 11.6007 8.10176 11.7043C8.10176 11.8195 8.05442 11.8407 7.97988 11.7588C7.91281 11.6852 7.71147 10.8641 7.53224 9.93414C7.2596 8.51936 7.14336 8.18007 6.81957 7.85586C6.38799 7.42358 6.09464 7.38356 5.54527 7.68199ZM23.3218 7.64592C22.6396 7.99775 22.6094 8.22178 22.6486 12.6428C22.6931 17.6805 22.5611 17.3755 24.7293 17.4502C26.1291 17.4985 26.1335 17.4975 26.5574 17.0735C27.1054 16.5256 27.1095 16.0278 26.5705 15.4888C26.25 15.1683 26.0313 15.077 25.5842 15.077H25.0098V11.7033C25.0098 8.40354 25.0029 8.32168 24.6928 7.97464C24.2994 7.53447 23.7797 7.40977 23.3218 7.64592ZM28.7436 7.63112C28.1171 7.97379 28.1096 8.03001 28.1096 12.4152C28.1096 14.719 28.149 16.7065 28.1971 16.8319C28.3669 17.2742 29.0318 17.4723 30.3462 17.4723C31.5008 17.4723 31.6482 17.4406 32.0439 17.1075C32.3628 16.8392 32.4764 16.6249 32.473 16.2973C32.4652 15.5201 31.9073 15.077 30.9369 15.077H30.364L30.3595 11.6602C30.3547 7.98196 30.3383 7.89418 29.6036 7.61478C29.1349 7.43668 29.0979 7.43739 28.7436 7.63112ZM47.0953 7.6214C45.6556 7.96069 44.3179 9.04055 43.6482 10.4042C43.3067 11.0999 43.2568 11.3648 43.2596 12.4703C43.2624 13.5371 43.3213 13.8641 43.6309 14.5303C44.6 16.6153 46.7427 17.7339 48.9878 17.3269C51.3497 16.8986 52.8831 15.1846 53.02 12.8203C53.1302 10.9171 52.3936 9.37843 50.8996 8.391C49.7273 7.61619 48.3227 7.33213 47.0953 7.6214ZM54.79 7.60816C54.0597 7.90278 54.0352 8.06186 54.0352 12.5125V16.6486L54.4471 17.0604C54.9508 17.5642 55.4358 17.5871 55.9647 17.1326C56.3549 16.7972 56.3611 16.7671 56.4305 14.843L56.501 12.893L57.8201 14.9748C58.5457 16.1198 59.2549 17.1185 59.3961 17.194C60.1231 17.583 61.2076 17.0644 61.2314 16.3162C61.2371 16.1384 61.2332 14.2809 61.2228 12.1885C61.2024 8.07397 61.1696 7.88432 60.429 7.6028C59.9081 7.4047 59.3997 7.58759 59.0861 8.08581C58.8333 8.48723 58.8175 8.68632 58.9025 10.3921C58.9538 11.4188 58.9653 12.259 58.9283 12.259C58.8911 12.259 58.2359 11.2703 57.4722 10.0618C55.9196 7.60534 55.576 7.29099 54.79 7.60816ZM16.8621 7.93533C16.5617 8.25517 16.5558 8.34337 16.5558 12.4534C16.5558 14.9183 16.6126 16.7516 16.6937 16.9032C16.9024 17.2932 17.5987 17.4723 18.9061 17.4723C20.2909 17.4723 21.0023 17.2318 21.2066 16.6944C21.5607 15.7632 20.8945 15.077 19.6366 15.077H18.8102V14.3725V13.668H19.4376C20.2254 13.668 20.7071 13.453 20.9082 13.0118C21.1581 12.463 21.0932 12.125 20.6527 11.6845C20.3057 11.3375 20.1283 11.2727 19.5255 11.2727H18.8102V10.5682V9.86369H19.7015C20.6527 9.86369 21.0544 9.62148 21.2671 8.91966C21.3768 8.55712 21.0412 7.82542 20.706 7.69678C20.5806 7.64874 19.7334 7.60928 18.8233 7.60928C17.2758 7.60928 17.1487 7.63042 16.8621 7.93533ZM35.4341 8.01254L35.0014 8.44524L35.0429 12.5484L35.0841 16.6517L35.4795 16.9915C35.8357 17.2979 36.0037 17.3314 37.1799 17.3314C39.0423 17.3314 39.8364 17.0659 40.7371 16.1423C41.8961 14.9538 42.3845 13.2098 42.0597 11.4188C41.772 9.83213 41.0552 8.72282 39.9105 8.09243C39.2361 7.72102 39.0234 7.68002 37.5186 7.63225L35.8668 7.57984L35.4341 8.01254ZM62.9442 7.70355C62.8457 7.74328 62.6713 7.95703 62.5567 8.17866C62.3876 8.50555 62.3483 9.31192 62.3483 12.4541C62.3483 14.5841 62.4091 16.4864 62.4832 16.6814C62.6988 17.2483 63.311 17.4723 64.6451 17.4723C66.476 17.4723 66.998 17.1915 66.998 16.207C66.998 15.4846 66.4667 15.077 65.5249 15.077H64.7436V14.3725V13.668H65.3698C66.2234 13.668 66.7726 13.205 66.7726 12.4854C66.7726 11.7625 66.3607 11.3922 65.4598 11.3057L64.7436 11.2369V10.5503V9.86369H65.5249C66.1667 9.86369 66.3682 9.80183 66.6521 9.51778C67.1098 9.06027 67.1188 8.33534 66.672 7.9156C66.3747 7.63634 66.2034 7.61027 64.7346 7.62042C63.8484 7.62647 63.0427 7.66395 62.9442 7.70355ZM49.6606 10.3357C51.0725 11.27 51.0697 13.6725 49.6553 14.6085C48.3189 15.4929 46.505 15.0456 45.7854 13.654C45.5458 13.1908 45.5171 12.0237 45.7316 11.458C46.2802 10.0097 48.2973 9.43352 49.6606 10.3357ZM38.9428 10.2347C40.0698 11.024 40.0698 13.9167 38.9428 14.706C38.7622 14.8325 38.3432 14.9361 38.0116 14.9361H37.409V12.4703V10.0046H38.0116C38.3432 10.0046 38.7622 10.1081 38.9428 10.2347ZM44.9472 28.931C43.3081 29.3496 42.0611 30.3603 41.3732 31.8272C41.0494 32.5176 41.002 32.7998 41.002 34.031C41.002 35.342 41.0351 35.5102 41.4643 36.382C42.3946 38.272 43.9709 39.2167 46.2153 39.2297C47.2964 39.2359 47.5976 39.183 48.2583 38.8714C49.3438 38.3593 50.2408 37.511 50.7985 36.4686C51.2169 35.6865 51.2816 35.4235 51.3299 34.3099C51.3756 33.2564 51.3323 32.9024 51.0746 32.2183C50.1529 29.7719 47.4118 28.3013 44.9472 28.931ZM23.1076 30.8501C22.3001 31.1806 21.9463 32.3418 22.4562 32.9885C22.6165 33.1917 23.3542 33.7251 24.0958 34.1738C24.8373 34.6224 25.468 35.0282 25.4972 35.0755C25.5265 35.1229 24.8844 35.5723 24.0705 36.0744C22.2339 37.2069 21.8886 37.7531 22.3926 38.7278C22.6194 39.1666 23.1445 39.4527 23.7228 39.4527C24.1852 39.4527 28.8209 36.6854 29.4129 36.0559C29.8225 35.6205 29.9319 34.8893 29.6627 34.3864C29.5499 34.1753 25.304 31.4427 24.2089 30.8761C23.8555 30.6934 23.5106 30.6852 23.1076 30.8501ZM47.3346 32.0226C48.7742 32.838 48.8676 34.9727 47.5083 35.9859C46.9181 36.4259 45.4055 36.4084 44.7689 35.9543C44.147 35.5108 43.838 34.8739 43.8343 34.0281C43.8264 32.2214 45.7451 31.1223 47.3346 32.0226ZM21.1011 45.5801C20.8215 45.7015 20.5513 45.9737 20.4046 46.2812C20.1739 46.765 20.177 46.8215 20.4898 47.8032C21.2749 50.2672 22.775 52.721 24.6532 54.6136C27.9195 57.9047 31.9452 59.4837 36.5509 59.2798C42.9221 58.998 48.2816 55.0896 50.7779 48.9045C51.0463 48.2395 51.2925 47.3784 51.3249 46.9909C51.3781 46.3543 51.343 46.2478 50.9616 45.8854C50.6694 45.6077 50.3837 45.4799 50.0335 45.47C49.2119 45.4466 48.8266 45.855 48.2542 47.355C47.6791 48.8626 47.2802 49.6725 46.6636 50.5838C44.6096 53.6197 41.4513 55.6564 37.9124 56.2273C36.5009 56.455 33.8335 56.3276 32.5479 55.971C28.3986 54.8203 25.0843 51.8094 23.5944 47.8376C22.8945 45.9711 22.79 45.7934 22.2653 45.5741C21.6805 45.3297 21.6769 45.3297 21.1011 45.5801ZM35.1229 67.8454C33.7405 68.6208 34.6103 70.8574 36.1616 70.5167C36.7192 70.3943 37.2681 69.6933 37.2681 69.1036C37.2681 68.0818 36.0135 67.346 35.1229 67.8454Z" fill="#00C2FF"/>
</svg>
