<svg width="20" height="20" viewBox="0 0 20 20" fill="none" xmlns="http://www.w3.org/2000/svg">
<path d="M10.0008 7.5C8.61967 7.5 7.50081 8.61925 7.50081 10C7.50081 11.3811 8.62008 12.5 10.0008 12.5C11.3819 12.5 12.5008 11.3807 12.5008 10C12.5008 8.61892 11.3816 7.5 10.0008 7.5ZM10.0008 5.83333C12.3012 5.83333 14.1675 7.69758 14.1675 10C14.1675 12.3004 12.3032 14.1667 10.0008 14.1667C7.70042 14.1667 5.83415 12.3024 5.83415 10C5.83415 7.69961 7.6984 5.83333 10.0008 5.83333ZM15.4175 5.62429C15.4175 6.19938 14.9502 6.66598 14.3758 6.66598C13.8007 6.66598 13.3342 6.19867 13.3342 5.62429C13.3342 5.04992 13.8014 4.58333 14.3758 4.58333C14.9494 4.58261 15.4175 5.04992 15.4175 5.62429ZM10.0008 3.33333C7.93875 3.33333 7.60265 3.33879 6.64356 3.3815C5.99012 3.41218 5.55211 3.50006 5.14513 3.65806C4.78346 3.79833 4.52257 3.96582 4.2446 4.24379C3.96556 4.52283 3.79836 4.78303 3.65866 5.14486C3.5003 5.55277 3.41244 5.99009 3.38231 6.64263C3.33919 7.56267 3.33415 7.88421 3.33415 10C3.33415 12.0621 3.33961 12.3982 3.38231 13.3572C3.413 14.0103 3.501 14.449 3.65861 14.855C3.79925 15.2172 3.96708 15.4787 4.24371 15.7553C4.52386 16.0351 4.78482 16.2028 5.14322 16.3412C5.55516 16.5004 5.9929 16.5884 6.64343 16.6185C7.56348 16.6616 7.88502 16.6667 10.0008 16.6667C12.0629 16.6667 12.399 16.6612 13.358 16.6185C14.0097 16.5879 14.4487 16.4997 14.8558 16.3422C15.217 16.2019 15.4793 16.0335 15.7562 15.7571C16.0363 15.4765 16.2037 15.2162 16.3422 14.8569C16.5011 14.4465 16.5892 14.0082 16.6193 13.3574C16.6624 12.4373 16.6675 12.1158 16.6675 10C16.6675 7.93793 16.662 7.60184 16.6193 6.64281C16.5887 5.99088 16.5004 5.55124 16.3427 5.14432C16.2028 4.78365 16.0347 4.52196 15.757 4.24379C15.4775 3.96429 15.218 3.79744 14.8559 3.65785C14.4483 3.49962 14.0103 3.41163 13.3582 3.38151C12.4382 3.33838 12.1166 3.33333 10.0008 3.33333ZM10.0008 1.66667C12.2647 1.66667 12.5473 1.675 13.4362 1.71667C14.323 1.75764 14.9279 1.89792 15.4592 2.10417C16.0084 2.31598 16.4723 2.60208 16.9355 3.06528C17.398 3.52848 17.6842 3.99375 17.8967 4.54167C18.1022 5.07223 18.2425 5.67778 18.2842 6.56458C18.3237 7.45347 18.3342 7.73611 18.3342 10C18.3342 12.2639 18.3258 12.5465 18.2842 13.4354C18.2432 14.3222 18.1022 14.9271 17.8967 15.4583C17.6848 16.0077 17.398 16.4715 16.9355 16.9347C16.4723 17.3972 16.0063 17.6833 15.4592 17.8958C14.9279 18.1014 14.323 18.2417 13.4362 18.2833C12.5473 18.3229 12.2647 18.3333 10.0008 18.3333C7.73692 18.3333 7.45428 18.325 6.5654 18.2833C5.67859 18.2423 5.07442 18.1014 4.54248 17.8958C3.99386 17.684 3.52928 17.3972 3.06609 16.9347C2.6029 16.4715 2.31748 16.0056 2.10498 15.4583C1.89873 14.9271 1.75915 14.3222 1.71748 13.4354C1.6779 12.5465 1.66748 12.2639 1.66748 10C1.66748 7.73611 1.67581 7.45347 1.71748 6.56458C1.75845 5.67708 1.89873 5.07292 2.10498 4.54167C2.31678 3.99306 2.6029 3.52848 3.06609 3.06528C3.52928 2.60208 3.99456 2.31667 4.54248 2.10417C5.07373 1.89792 5.6779 1.75833 6.5654 1.71667C7.45428 1.67708 7.73692 1.66667 10.0008 1.66667Z" fill="white"/>
</svg>
