<svg width="193" height="80" viewBox="0 0 193 80" fill="none" xmlns="http://www.w3.org/2000/svg">
<path fill-rule="evenodd" clip-rule="evenodd" d="M39.8117 27.5572V30.1308H42.381H44.9503V27.5572V24.9836H42.381H39.8117V27.5572ZM46.0514 27.5572V30.1308H48.6207H51.19V27.5572V24.9836H48.6207H46.0514V27.5572ZM39.8117 33.8993V36.5648H42.381H44.9503V33.8993V31.2338H42.381H39.8117V33.8993ZM46.1739 31.3564C46.1065 31.4237 46.0514 32.6232 46.0514 34.0219V36.5648H48.6207H51.19V33.8993V31.2338H48.7431C47.3972 31.2338 46.241 31.2889 46.1739 31.3564ZM34.9736 40.0543C32.6706 40.4738 29.2689 42.3795 28.1125 43.8983C27.51 44.6895 27.2887 45.6991 27.757 45.5191C29.2624 44.9404 34.6812 44.8985 36.4203 45.452C37.5913 45.8248 39.6123 47.0434 40.0635 47.649C40.3104 47.9802 40.4576 48.6332 40.5759 49.9222C40.6671 50.9169 40.8536 52.1592 40.9901 52.6831C41.2307 53.6058 41.2247 53.6488 40.7971 54.0512C40.5543 54.2797 40.1191 54.9677 39.8299 55.5803C39.1815 56.9538 38.5243 57.6362 37.3342 58.1717C36.8295 58.3989 36.2415 58.7796 36.0276 59.0181C35.5363 59.5653 26.2312 73.1323 26.2312 73.3012C26.2312 73.37 27.7579 74.9538 29.624 76.821C32.5669 79.7657 33.0503 80.1797 33.2694 79.9442C33.5339 79.66 42.4381 64.8171 42.8975 63.8949C43.0579 63.5728 43.1513 62.8895 43.1355 62.1551C43.1004 60.5368 43.308 59.9799 44.8112 57.6592L46.0913 55.683H46.8648C47.2904 55.683 48.3282 55.4762 49.1713 55.2235C50.0144 54.9707 50.9335 54.7639 51.2137 54.7639C52.4339 54.7639 53.2616 55.6488 53.449 57.1537C53.5319 57.8202 53.6879 58.0974 54.2521 58.5807C55.3692 59.5376 56.6202 60.292 57.5593 60.5751C58.382 60.8231 58.4751 60.8142 59.2602 60.4115C59.9399 60.0628 60.3354 59.6197 61.4382 57.9721C63.1185 55.4613 63.6654 54.3312 63.6676 53.364C63.67 52.3493 63.2796 51.8952 61.1543 50.4417L59.3952 49.2384L58.4301 49.5194C56.4174 50.1057 55.5485 49.759 54.2812 47.865C53.5301 46.7423 53.277 46.5421 49.9019 44.4002C46.2076 42.0556 44.3699 41.2015 41.2878 40.3969C39.7189 39.9873 36.346 39.8042 34.9736 40.0543Z" fill="black"/>
<path fill-rule="evenodd" clip-rule="evenodd" d="M43.9409 0.247927C43.0659 0.646468 0.607499 43.3207 0.269271 44.1419C-0.0902462 45.0145 -0.0896949 46.1324 0.270556 47.003C0.46674 47.4775 4.01566 51.1577 11.8762 59.0379C18.1038 65.2811 23.262 70.3894 23.3387 70.3894C23.4156 70.3894 23.4784 65.0537 23.4784 58.5324V46.6754H20.0774C16.159 46.6754 15.6487 46.5532 15.1471 45.4945C14.5677 44.2717 14.8239 43.8308 18.1458 40.3333C18.8181 39.6256 24.9631 33.029 31.8016 25.6744C38.64 18.3196 44.3906 12.2189 44.5807 12.117C45.1542 11.8095 46.1502 11.9038 46.6719 12.315C46.9395 12.5259 52.1742 18.0867 58.3044 24.6724C64.4347 31.258 70.8425 38.1377 72.5439 39.9605C74.2453 41.7832 75.7664 43.5406 75.924 43.8656C76.329 44.7005 75.987 45.8202 75.1754 46.3158C74.6478 46.6381 74.234 46.6741 71.0561 46.6747L67.5234 46.6754V58.5324C67.5234 65.0537 67.5861 70.3894 67.663 70.3894C67.7397 70.3894 72.9335 65.2397 79.2046 58.946C88.3974 49.72 90.6503 47.3651 90.8314 46.7927C91.1694 45.7245 90.9845 44.2516 90.408 43.422C90.1408 43.0376 80.4436 33.234 68.8587 21.6362C53.9777 6.73893 47.5947 0.466132 47.1126 0.266126C46.2764 -0.080943 44.6833 -0.0901343 43.9409 0.247927Z" fill="#00C2FF"/>
<path d="M102.728 34V17.128H105.992V34H102.728ZM113.312 34V17.128H116.576V34H113.312ZM104.792 26.728V23.848H114.224V26.728H104.792ZM125.137 34.24C123.969 34.24 122.913 33.976 121.969 33.448C121.041 32.904 120.297 32.176 119.737 31.264C119.193 30.336 118.921 29.304 118.921 28.168C118.921 27.032 119.193 26.016 119.737 25.12C120.281 24.208 121.025 23.488 121.969 22.96C122.913 22.416 123.961 22.144 125.113 22.144C126.297 22.144 127.353 22.416 128.281 22.96C129.225 23.488 129.969 24.208 130.513 25.12C131.057 26.016 131.329 27.032 131.329 28.168C131.329 29.304 131.057 30.336 130.513 31.264C129.969 32.176 129.225 32.904 128.281 33.448C127.353 33.976 126.305 34.24 125.137 34.24ZM125.113 31.312C125.705 31.312 126.225 31.184 126.673 30.928C127.137 30.656 127.489 30.288 127.729 29.824C127.985 29.344 128.113 28.8 128.113 28.192C128.113 27.584 127.985 27.048 127.729 26.584C127.473 26.12 127.121 25.76 126.673 25.504C126.225 25.232 125.705 25.096 125.113 25.096C124.537 25.096 124.025 25.232 123.577 25.504C123.129 25.76 122.777 26.12 122.521 26.584C122.265 27.048 122.137 27.584 122.137 28.192C122.137 28.8 122.265 29.344 122.521 29.824C122.777 30.288 123.129 30.656 123.577 30.928C124.025 31.184 124.537 31.312 125.113 31.312ZM133.353 34V22.408H136.497V34H133.353ZM140.913 34V27.16C140.913 26.488 140.697 25.968 140.265 25.6C139.849 25.216 139.329 25.024 138.705 25.024C138.289 25.024 137.913 25.112 137.577 25.288C137.241 25.448 136.977 25.688 136.785 26.008C136.593 26.328 136.497 26.712 136.497 27.16L135.273 26.56C135.273 25.664 135.465 24.888 135.849 24.232C136.249 23.576 136.785 23.072 137.457 22.72C138.129 22.352 138.889 22.168 139.737 22.168C140.537 22.168 141.265 22.352 141.921 22.72C142.577 23.072 143.097 23.576 143.481 24.232C143.865 24.872 144.057 25.648 144.057 26.56V34H140.913ZM148.473 34V27.16C148.473 26.488 148.257 25.968 147.825 25.6C147.409 25.216 146.889 25.024 146.265 25.024C145.865 25.024 145.489 25.112 145.137 25.288C144.801 25.448 144.537 25.688 144.345 26.008C144.153 26.328 144.057 26.712 144.057 27.16L142.257 26.728C142.321 25.8 142.569 25 143.001 24.328C143.433 23.64 144.001 23.112 144.705 22.744C145.409 22.36 146.193 22.168 147.057 22.168C147.921 22.168 148.697 22.352 149.385 22.72C150.073 23.072 150.617 23.584 151.017 24.256C151.417 24.928 151.617 25.728 151.617 26.656V34H148.473ZM159.709 34.24C158.493 34.24 157.413 33.984 156.469 33.472C155.525 32.944 154.773 32.224 154.213 31.312C153.669 30.4 153.397 29.36 153.397 28.192C153.397 27.04 153.661 26.016 154.189 25.12C154.733 24.208 155.469 23.488 156.397 22.96C157.325 22.416 158.357 22.144 159.493 22.144C160.613 22.144 161.597 22.4 162.445 22.912C163.309 23.408 163.981 24.096 164.461 24.976C164.957 25.84 165.205 26.824 165.205 27.928C165.205 28.136 165.189 28.352 165.157 28.576C165.141 28.784 165.101 29.024 165.037 29.296L155.293 29.32V26.968L163.573 26.944L162.301 27.928C162.269 27.24 162.141 26.664 161.917 26.2C161.709 25.736 161.397 25.384 160.981 25.144C160.581 24.888 160.085 24.76 159.493 24.76C158.869 24.76 158.325 24.904 157.861 25.192C157.397 25.464 157.037 25.856 156.781 26.368C156.541 26.864 156.421 27.456 156.421 28.144C156.421 28.848 156.549 29.464 156.805 29.992C157.077 30.504 157.461 30.904 157.957 31.192C158.453 31.464 159.029 31.6 159.685 31.6C160.277 31.6 160.813 31.504 161.293 31.312C161.773 31.104 162.189 30.8 162.541 30.4L164.389 32.248C163.829 32.904 163.141 33.4 162.325 33.736C161.525 34.072 160.653 34.24 159.709 34.24ZM105.128 56.944V54.4H109.04C109.84 54.4 110.456 54.2 110.888 53.8C111.336 53.384 111.56 52.816 111.56 52.096C111.56 51.44 111.336 50.896 110.888 50.464C110.456 50.016 109.84 49.792 109.04 49.792H105.128V47.128H109.328C110.416 47.128 111.368 47.344 112.184 47.776C113.016 48.192 113.656 48.768 114.104 49.504C114.568 50.24 114.8 51.088 114.8 52.048C114.8 53.04 114.568 53.904 114.104 54.64C113.656 55.36 113.016 55.928 112.184 56.344C111.352 56.744 110.384 56.944 109.28 56.944H105.128ZM102.728 64V47.128H105.992V64H102.728ZM111.944 64L106.376 56.704L109.376 55.768L115.904 64H111.944ZM121.935 64.24C120.879 64.24 119.927 63.976 119.079 63.448C118.231 62.92 117.567 62.2 117.087 61.288C116.607 60.376 116.367 59.352 116.367 58.216C116.367 57.064 116.607 56.032 117.087 55.12C117.567 54.208 118.231 53.488 119.079 52.96C119.927 52.432 120.879 52.168 121.935 52.168C122.767 52.168 123.511 52.336 124.167 52.672C124.823 53.008 125.343 53.48 125.727 54.088C126.127 54.68 126.343 55.352 126.375 56.104V60.28C126.343 61.048 126.127 61.728 125.727 62.32C125.343 62.912 124.823 63.384 124.167 63.736C123.511 64.072 122.767 64.24 121.935 64.24ZM122.511 61.336C123.391 61.336 124.103 61.048 124.647 60.472C125.191 59.88 125.463 59.12 125.463 58.192C125.463 57.584 125.335 57.048 125.079 56.584C124.839 56.104 124.495 55.736 124.047 55.48C123.615 55.208 123.103 55.072 122.511 55.072C121.935 55.072 121.423 55.208 120.975 55.48C120.543 55.736 120.199 56.104 119.943 56.584C119.703 57.048 119.583 57.584 119.583 58.192C119.583 58.816 119.703 59.368 119.943 59.848C120.199 60.312 120.543 60.68 120.975 60.952C121.423 61.208 121.935 61.336 122.511 61.336ZM125.295 64V60.88L125.799 58.048L125.295 55.264V52.408H128.415V64H125.295ZM138.589 64L134.101 58.024L138.565 52.408H142.189L136.957 58.744L137.077 57.208L142.429 64H138.589ZM131.197 64V46.648H134.341V64H131.197ZM147.181 64.264C146.525 64.264 145.877 64.176 145.237 64C144.613 63.824 144.037 63.584 143.509 63.28C142.981 62.96 142.525 62.576 142.141 62.128L144.013 60.232C144.413 60.68 144.877 61.016 145.405 61.24C145.933 61.464 146.517 61.576 147.157 61.576C147.669 61.576 148.053 61.504 148.309 61.36C148.581 61.216 148.717 61 148.717 60.712C148.717 60.392 148.573 60.144 148.285 59.968C148.013 59.792 147.653 59.648 147.205 59.536C146.757 59.408 146.285 59.272 145.789 59.128C145.309 58.968 144.845 58.768 144.397 58.528C143.949 58.272 143.581 57.928 143.293 57.496C143.021 57.048 142.885 56.472 142.885 55.768C142.885 55.032 143.061 54.392 143.413 53.848C143.781 53.304 144.301 52.88 144.973 52.576C145.645 52.272 146.437 52.12 147.349 52.12C148.309 52.12 149.173 52.288 149.941 52.624C150.725 52.96 151.373 53.464 151.885 54.136L149.989 56.032C149.637 55.6 149.237 55.288 148.789 55.096C148.357 54.904 147.885 54.808 147.373 54.808C146.909 54.808 146.549 54.88 146.293 55.024C146.053 55.168 145.933 55.368 145.933 55.624C145.933 55.912 146.069 56.136 146.341 56.296C146.629 56.456 146.997 56.6 147.445 56.728C147.893 56.84 148.357 56.976 148.837 57.136C149.333 57.28 149.797 57.488 150.229 57.76C150.677 58.032 151.037 58.392 151.309 58.84C151.597 59.288 151.741 59.864 151.741 60.568C151.741 61.704 151.333 62.608 150.517 63.28C149.701 63.936 148.589 64.264 147.181 64.264ZM161.661 64V57.352C161.661 56.664 161.445 56.104 161.013 55.672C160.581 55.24 160.021 55.024 159.333 55.024C158.885 55.024 158.485 55.12 158.133 55.312C157.781 55.504 157.501 55.776 157.293 56.128C157.101 56.48 157.005 56.888 157.005 57.352L155.781 56.728C155.781 55.816 155.973 55.024 156.357 54.352C156.741 53.664 157.269 53.128 157.941 52.744C158.629 52.36 159.413 52.168 160.293 52.168C161.173 52.168 161.949 52.36 162.621 52.744C163.309 53.128 163.845 53.656 164.229 54.328C164.613 55 164.805 55.776 164.805 56.656V64H161.661ZM153.861 64V46.648H157.005V64H153.861ZM172.185 64.24C171.129 64.24 170.177 63.976 169.329 63.448C168.481 62.92 167.817 62.2 167.337 61.288C166.857 60.376 166.617 59.352 166.617 58.216C166.617 57.064 166.857 56.032 167.337 55.12C167.817 54.208 168.481 53.488 169.329 52.96C170.177 52.432 171.129 52.168 172.185 52.168C173.017 52.168 173.761 52.336 174.417 52.672C175.073 53.008 175.593 53.48 175.977 54.088C176.377 54.68 176.593 55.352 176.625 56.104V60.28C176.593 61.048 176.377 61.728 175.977 62.32C175.593 62.912 175.073 63.384 174.417 63.736C173.761 64.072 173.017 64.24 172.185 64.24ZM172.761 61.336C173.641 61.336 174.353 61.048 174.897 60.472C175.441 59.88 175.713 59.12 175.713 58.192C175.713 57.584 175.585 57.048 175.329 56.584C175.089 56.104 174.745 55.736 174.297 55.48C173.865 55.208 173.353 55.072 172.761 55.072C172.185 55.072 171.673 55.208 171.225 55.48C170.793 55.736 170.449 56.104 170.193 56.584C169.953 57.048 169.833 57.584 169.833 58.192C169.833 58.816 169.953 59.368 170.193 59.848C170.449 60.312 170.793 60.68 171.225 60.952C171.673 61.208 172.185 61.336 172.761 61.336ZM175.545 64V60.88L176.049 58.048L175.545 55.264V52.408H178.665V64H175.545ZM188.839 64L184.351 58.024L188.815 52.408H192.439L187.207 58.744L187.327 57.208L192.679 64H188.839ZM181.447 64V46.648H184.591V64H181.447Z" fill="black"/>
</svg>
