<svg width="60" height="60" viewBox="0 0 60 60" fill="none" xmlns="http://www.w3.org/2000/svg">
<path fill-rule="evenodd" clip-rule="evenodd" d="M47.9957 11.0566C51.359 11.6768 53.6347 12.7967 55.7962 14.8956C58.623 17.6405 60 20.8941 60 24.8277C60 28.431 58.7362 31.591 56.2446 34.2183C53.9678 36.6188 51.4697 37.9349 48.1574 38.4787L47.3314 38.6144L41.7754 44.1491C36.9305 48.9756 36.1367 49.7061 35.5736 49.8567C34.2596 50.208 32.8599 49.3912 32.5026 48.065C32.3779 47.6012 32.345 44.0106 32.3848 35.1582C32.4324 24.6095 32.4739 22.7553 32.6812 21.9026C33.9509 16.6796 37.7649 12.7215 42.7992 11.4025C43.9334 11.1053 47.1124 10.8937 47.9957 11.0566ZM16.1856 11.1801C20.5802 12.0196 24.2069 14.7402 26.1291 18.6393C27.2549 20.9229 27.5306 22.1333 27.5306 24.7934C27.5306 27.4535 27.2549 28.6639 26.1291 30.9475C24.178 34.9052 20.5075 37.6295 16.0856 38.4015L14.794 38.6272L9.24775 44.1583C4.39392 48.9989 3.62078 49.7106 3.05567 49.8594C2.13483 50.1017 1.35957 49.8576 0.687332 49.1134C0.390568 48.7849 0.106113 48.2899 0.0553627 48.0133C0.00460815 47.7366 -0.0148392 41.9033 0.012207 35.0502C0.0682793 20.8131 -0.00800323 21.6647 1.48357 18.6393C3.21887 15.1193 6.5869 12.3846 10.3874 11.4095C11.958 11.0066 14.708 10.8978 16.1856 11.1801ZM44.3183 16.1458C43.0136 16.4141 41.1695 17.3816 40.2157 18.298C39.1408 19.3308 38.2125 20.758 37.7769 22.0473C37.4453 23.0286 37.4386 23.2059 37.3926 32.2365L37.3455 41.4271L41.1138 37.6863C45.1544 33.675 45.2457 33.6094 46.7862 33.6076C50.0898 33.6035 53.5865 30.8515 54.7032 27.3766C55.1469 25.9961 55.1469 23.5907 54.7032 22.2102C53.7731 19.3161 51.3367 16.9818 48.4516 16.2207C47.4444 15.9549 45.4241 15.9183 44.3183 16.1458ZM11.6249 16.221C9.30428 16.8197 7.09382 18.5544 6.02605 20.6147C4.98547 22.6226 4.99307 22.5355 4.99307 32.4849V41.4242L8.7539 37.6813C12.756 33.6981 12.8732 33.6127 14.3382 33.6053C17.0672 33.5913 20.2455 31.5599 21.5866 28.9721C24.2162 23.8981 21.6292 17.8381 16.1616 16.2643C14.9866 15.926 12.8475 15.9057 11.6249 16.221Z" fill="#00C2FF"/>
</svg>
