<svg width="24" height="24" viewBox="0 0 24 24" fill="none" xmlns="http://www.w3.org/2000/svg">
<g clip-path="url(#clip0_2407_2)">
<path d="M17 6H7V17H17V6Z" fill="white"/>
<mask id="mask0_2407_2" style="mask-type:luminance" maskUnits="userSpaceOnUse" x="0" y="0" width="24" height="24">
<path d="M24 0H0V24H24V0Z" fill="white"/>
</mask>
<g mask="url(#mask0_2407_2)">
<path d="M12.0099 2.01074C12.7877 2.01078 13.5389 2.29411 14.1229 2.80774L14.2769 2.95274L14.9749 3.65074C15.1665 3.84105 15.4167 3.96119 15.6849 3.99174L15.8199 3.99974H16.8199C17.6372 3.99969 18.4234 4.31231 19.0175 4.87348C19.6116 5.43465 19.9685 6.20184 20.0149 7.01774L20.0199 7.19974V8.19974C20.0199 8.46974 20.1119 8.73274 20.2779 8.94274L20.3679 9.04274L21.0649 9.74074C21.6427 10.3152 21.9795 11.0884 22.0068 11.9027C22.0342 12.7169 21.7499 13.5109 21.2119 14.1228L21.0669 14.2768L20.3689 14.9748C20.1786 15.1663 20.0585 15.4165 20.0279 15.6848L20.0199 15.8198V16.8198C20.02 17.637 19.7074 18.4233 19.1462 19.0174C18.585 19.6114 17.8178 19.9683 17.0019 20.0148L16.8199 20.0198H15.8199C15.5503 20.0199 15.2886 20.1108 15.0769 20.2778L14.9769 20.3678L14.2789 21.0648C13.7045 21.6425 12.9313 21.9794 12.1171 22.0067C11.3028 22.034 10.5088 21.7497 9.89693 21.2118L9.74293 21.0668L9.04493 20.3688C8.85337 20.1785 8.60322 20.0583 8.33493 20.0278L8.19993 20.0198H7.19993C6.38271 20.0198 5.59644 19.7072 5.00236 19.146C4.40828 18.5849 4.0514 17.8177 4.00493 17.0018L3.99993 16.8198V15.8198C3.99984 15.5502 3.90895 15.2884 3.74193 15.0768L3.65193 14.9768L2.95493 14.2788C2.37721 13.7043 2.04035 12.9312 2.01303 12.1169C1.98572 11.3027 2.27 10.5087 2.80793 9.89674L2.95293 9.74274L3.65093 9.04474C3.84124 8.85318 3.96138 8.60303 3.99193 8.33474L3.99993 8.19974V7.19974L4.00493 7.01774C4.04958 6.23318 4.38135 5.49249 4.93701 4.93682C5.49268 4.38116 6.23337 4.04939 7.01793 4.00474L7.19993 3.99974H8.19993C8.46954 3.99965 8.73128 3.90876 8.94293 3.74174L9.04293 3.65174L9.74093 2.95474C10.0383 2.65563 10.3918 2.41824 10.7812 2.25624C11.1706 2.09423 11.5882 2.0108 12.0099 2.01074ZM15.7069 9.29274C15.5194 9.10527 15.2651 8.99995 14.9999 8.99995C14.7348 8.99995 14.4805 9.10527 14.2929 9.29274L10.9999 12.5848L9.70693 11.2928L9.61293 11.2098C9.41193 11.0544 9.15932 10.9813 8.9064 11.0054C8.65348 11.0295 8.41921 11.1489 8.25117 11.3395C8.08314 11.5301 7.99394 11.7775 8.0017 12.0314C8.00945 12.2854 8.11358 12.5268 8.29293 12.7068L10.2929 14.7068L10.3869 14.7898C10.5793 14.939 10.8196 15.013 11.0626 14.9977C11.3057 14.9824 11.5348 14.879 11.7069 14.7068L15.7069 10.7068L15.7899 10.6128C15.9392 10.4204 16.0131 10.1801 15.9978 9.93706C15.9826 9.69403 15.8791 9.46493 15.7069 9.29274Z" fill="#00C2FF"/>
</g>
</g>
<defs>
<clipPath id="clip0_2407_2">
<rect width="24" height="24" fill="white"/>
</clipPath>
</defs>
</svg>
