<svg width="20" height="20" viewBox="0 0 20 20" fill="none" xmlns="http://www.w3.org/2000/svg">
<path d="M6.04467 15.412L6.64861 15.7642C7.65757 16.3525 8.80425 16.6667 10.0008 16.6667C13.6827 16.6667 16.6675 13.6819 16.6675 10C16.6675 6.3181 13.6827 3.33333 10.0008 3.33333C6.31891 3.33333 3.33415 6.3181 3.33415 10C3.33415 11.1969 3.64851 12.344 4.23721 13.3532L4.5892 13.9565L4.04462 15.9578L6.04467 15.412ZM1.67096 18.3333L2.7976 14.1929C2.07911 12.9613 1.66748 11.5288 1.66748 10C1.66748 5.39763 5.39844 1.66667 10.0008 1.66667C14.6032 1.66667 18.3342 5.39763 18.3342 10C18.3342 14.6023 14.6032 18.3333 10.0008 18.3333C8.47258 18.3333 7.04042 17.922 5.80905 17.2039L1.67096 18.3333ZM6.9936 6.09028C7.10516 6.08243 7.21711 6.08123 7.32882 6.08668C7.37396 6.08965 7.41887 6.09487 7.46382 6.10006C7.59654 6.11538 7.74248 6.19621 7.79155 6.30745C8.04015 6.87113 8.28136 7.43804 8.51516 8.00802C8.56675 8.13385 8.53566 8.29694 8.4375 8.45475C8.38766 8.53567 8.3094 8.64917 8.21873 8.76525C8.12449 8.88583 7.92166 9.10758 7.92166 9.10758C7.92166 9.10758 7.83948 9.20608 7.87046 9.32867C7.88252 9.375 7.92101 9.4425 7.9559 9.49925C7.97522 9.53067 7.99316 9.55875 8.00481 9.57817C8.21807 9.93425 8.50475 10.2952 8.85491 10.6347C8.95525 10.7319 9.05258 10.8312 9.15725 10.9233C9.5475 11.2674 9.989 11.5486 10.4658 11.7568L10.4701 11.7587C10.5405 11.7891 10.5767 11.8057 10.6797 11.8494C10.7317 11.8714 10.7849 11.8904 10.8395 11.9048C10.8592 11.91 10.8795 11.9129 10.8998 11.9143C11.0346 11.9224 11.1125 11.836 11.1457 11.7963C11.7487 11.0658 11.8038 11.0182 11.808 11.0185V11.0198C11.8872 10.9363 12.0118 10.9073 12.123 10.9142C12.1737 10.9173 12.2242 10.927 12.2704 10.9481C12.7136 11.1503 13.4382 11.4656 13.4382 11.4656L13.9227 11.6834C14.0039 11.7226 14.078 11.8148 14.0816 11.9045C14.0837 11.9603 14.0897 12.0503 14.0698 12.2149C14.0437 12.4305 13.9782 12.6901 13.913 12.8261C13.8672 12.9215 13.8078 13.0062 13.7388 13.0778C13.6452 13.175 13.5757 13.234 13.4632 13.3178C13.3947 13.3688 13.3592 13.3928 13.3592 13.3928C13.2435 13.4658 13.1782 13.5023 13.0403 13.5757C12.8258 13.69 12.5888 13.7557 12.3461 13.7682C12.1913 13.7761 12.037 13.7873 11.8824 13.7789C11.8756 13.7785 11.4089 13.7068 11.4089 13.7068C10.224 13.3952 9.12816 12.8113 8.20861 12.0017C8.02061 11.8362 7.84625 11.6571 7.66828 11.4799C6.9274 10.7423 6.36651 9.947 6.02641 9.19467C5.85869 8.82367 5.75249 8.42633 5.75081 8.01748C5.74774 7.51171 5.91332 7.01933 6.22141 6.61822C6.28214 6.53914 6.33978 6.45713 6.43924 6.36322C6.54456 6.26376 6.6116 6.21037 6.68381 6.17343C6.78006 6.12418 6.88577 6.09785 6.9936 6.09028Z" fill="white"/>
</svg>
